{"glyphs":{"0":{"ha":859,"x_min":88,"x_max":772,"o":"m 184 475 q 247 209 184 321 q 430 96 309 96 q 614 209 551 96 q 677 475 677 321 q 613 733 677 623 q 430 844 549 844 q 248 733 311 844 q 184 475 184 623 m 88 475 q 180 800 88 661 q 430 939 273 939 q 680 800 587 939 q 772 475 772 661 q 680 142 772 283 q 430 0 589 0 q 180 142 271 0 q 88 475 88 283 z "},"1":{"ha":560,"x_min":109,"x_max":446,"o":"m 109 688 l 109 779 q 291 829 212 779 q 377 968 370 879 l 446 968 l 446 0 l 338 0 l 338 688 l 109 688 z "},"2":{"ha":859,"x_min":107,"x_max":753,"o":"m 107 9 q 198 260 107 146 q 435 458 288 373 q 586 575 529 513 q 643 718 643 637 q 581 838 643 791 q 435 884 518 884 q 287 824 349 884 q 225 677 225 764 l 225 617 l 115 617 l 115 677 q 210 896 115 806 q 435 986 304 986 q 658 910 563 986 q 753 718 753 834 q 684 529 753 614 q 506 380 616 444 l 376 305 q 235 119 255 236 l 753 119 l 753 9 l 107 9 z "},"3":{"ha":861,"x_min":92,"x_max":769,"o":"m 92 300 l 190 300 q 261 150 190 209 q 430 91 332 91 q 591 147 522 91 q 659 290 659 203 q 591 408 659 366 q 430 450 522 450 l 339 450 l 339 560 l 430 560 q 555 605 502 560 q 609 719 609 650 q 555 825 609 784 q 430 867 502 867 q 277 814 342 867 q 212 680 212 761 l 102 680 q 195 885 102 802 q 419 968 289 968 q 628 898 538 968 q 718 719 718 827 q 689 595 718 652 q 609 507 661 538 q 725 427 681 488 q 769 290 769 366 q 669 69 769 159 q 430 -20 568 -20 q 191 73 290 -20 q 92 300 92 167 z "},"4":{"ha":861,"x_min":103,"x_max":758,"o":"m 222 349 l 521 349 l 521 779 l 222 349 m 103 251 l 103 349 l 521 968 l 631 968 l 631 349 l 758 349 l 758 251 l 631 251 l 631 0 l 521 0 l 521 251 l 103 251 z "},"5":{"ha":861,"x_min":92,"x_max":769,"o":"m 92 300 l 190 300 q 258 163 190 217 q 419 110 327 110 q 588 174 517 110 q 659 331 659 237 q 588 492 659 426 q 419 559 517 559 q 298 532 355 559 q 201 458 240 506 l 92 458 l 190 955 l 699 955 l 699 859 l 279 859 l 240 609 q 314 656 269 643 q 419 669 359 669 q 666 570 563 669 q 769 331 769 472 q 665 96 769 191 q 419 0 562 0 q 189 87 285 0 q 92 300 92 174 z "},"6":{"ha":861,"x_min":92,"x_max":769,"o":"m 220 300 q 281 152 220 213 q 430 91 343 91 q 591 154 524 91 q 659 309 659 217 q 591 460 659 399 q 430 521 524 521 q 281 456 342 521 q 220 300 220 391 m 92 361 l 92 480 q 191 822 92 675 q 458 968 290 968 q 662 890 576 968 q 747 697 747 811 l 648 697 q 592 818 648 769 q 458 867 536 867 q 269 754 336 867 q 201 490 201 642 q 292 584 229 551 q 430 617 354 617 q 668 529 567 617 q 769 309 769 441 q 669 76 769 172 q 430 -20 568 -20 q 189 94 285 -20 q 92 361 92 208 z "},"7":{"ha":861,"x_min":72,"x_max":789,"o":"m 72 859 l 72 955 l 789 955 l 789 859 q 510 496 600 724 q 420 0 420 269 l 293 0 q 378 484 293 258 q 639 859 463 709 l 72 859 z "},"8":{"ha":861,"x_min":72,"x_max":789,"o":"m 282 827 q 252 808 282 827 q 222 719 222 788 q 282 609 222 650 q 420 568 342 568 q 568 608 506 568 q 631 719 631 648 q 568 828 631 789 q 420 867 506 867 q 282 827 342 867 m 174 290 q 248 146 174 202 q 420 91 321 91 q 602 146 524 91 q 680 290 680 201 q 602 422 680 376 q 420 468 525 468 q 248 421 321 468 q 174 290 174 374 m 72 290 q 124 430 72 369 q 258 521 176 491 q 153 608 193 557 q 113 719 113 658 q 204 899 113 829 q 420 968 296 968 q 645 900 549 968 q 741 719 741 831 q 703 607 741 658 q 604 521 665 556 q 737 430 685 491 q 789 290 789 369 q 679 68 789 156 q 420 -20 568 -20 q 176 68 279 -20 q 72 290 72 157 z "},"9":{"ha":861,"x_min":103,"x_max":758,"o":"m 273 806 q 243 775 273 806 q 213 658 213 745 q 273 511 213 571 q 420 450 334 450 q 575 511 511 450 q 639 658 639 571 q 575 806 639 746 q 420 867 511 867 q 273 806 334 867 m 103 658 q 196 878 103 788 q 420 968 289 968 q 661 859 563 968 q 758 600 758 750 l 758 480 q 663 116 758 252 q 412 -20 568 -20 q 215 62 296 -20 q 134 260 134 145 l 241 260 q 292 140 241 190 q 412 91 342 91 q 577 189 515 91 q 639 450 639 288 q 539 384 595 407 q 420 361 483 361 q 197 447 290 361 q 103 658 103 533 z "},"\f":{"ha":0,"x_min":0,"x_max":0,"o":""}," ":{"ha":429,"x_min":0,"x_max":0,"o":""},"!":{"ha":460,"x_min":136,"x_max":326,"o":"m 198 316 l 136 1002 l 326 1002 l 262 316 l 198 316 m 145 0 l 145 163 l 316 163 l 316 0 l 145 0 z "},"\"":{"ha":624,"x_min":136,"x_max":490,"o":"m 490 901 l 423 901 l 370 1187 l 479 1187 l 490 901 m 255 901 l 187 901 l 136 1187 l 244 1187 l 255 901 z "},"#":{"ha":1267,"x_min":136,"x_max":1133,"o":"m 822 610 l 544 610 l 452 332 l 731 332 l 822 610 m 225 610 l 225 693 l 488 693 l 555 906 l 637 906 l 571 693 l 849 693 l 916 906 l 1001 906 l 933 693 l 1133 693 l 1133 610 l 905 610 l 815 332 l 1042 332 l 1042 245 l 788 245 l 709 -1 l 625 -1 l 704 245 l 426 245 l 347 -1 l 263 -1 l 343 245 l 136 245 l 136 332 l 369 332 l 458 610 l 225 610 z "},"$":{"ha":966,"x_min":136,"x_max":831,"o":"m 434 903 q 296 838 350 887 q 241 726 241 788 q 296 606 241 659 q 434 540 350 552 l 434 903 m 522 66 q 686 134 620 77 q 751 263 751 190 q 686 389 751 336 q 522 450 620 442 l 522 66 m 136 305 l 218 305 q 279 157 218 224 q 434 66 339 91 l 434 463 q 237 551 316 475 q 157 726 157 627 q 236 895 157 822 q 434 982 315 968 l 434 1138 l 522 1138 l 522 982 q 724 889 643 968 q 804 704 804 810 l 718 704 q 661 834 718 779 q 522 903 605 890 l 522 528 q 743 434 655 510 q 831 263 831 358 q 743 80 831 159 q 522 -12 654 1 l 522 -137 l 434 -137 l 434 -12 q 220 96 305 5 q 136 305 136 186 z "},"%":{"ha":1200,"x_min":136,"x_max":1066,"o":"m 751 130 q 770 111 751 130 q 844 91 789 91 q 937 130 898 91 q 975 225 975 170 q 937 321 975 282 q 844 361 898 361 q 751 321 789 361 q 713 225 713 282 q 751 130 713 170 m 1001 73 q 968 41 1001 73 q 844 9 936 9 q 687 73 751 9 q 623 229 623 137 q 687 387 623 321 q 844 452 751 452 q 1001 387 936 452 q 1066 229 1066 321 q 1001 73 1066 137 m 263 661 q 282 642 263 661 q 355 623 301 623 q 449 661 410 623 q 488 753 488 699 q 449 846 488 807 q 355 884 410 884 q 263 846 301 884 q 225 753 225 807 q 263 661 225 699 m 513 597 q 480 565 513 597 q 355 533 448 533 q 199 597 263 533 q 136 753 136 661 q 199 910 136 845 q 355 975 263 975 q 513 910 448 975 q 578 753 578 845 q 513 597 578 661 m 198 0 l 903 985 l 1002 985 l 298 0 l 198 0 z "},"&":{"ha":1032,"x_min":136,"x_max":898,"o":"m 331 796 q 358 709 331 762 q 437 589 385 655 q 540 679 502 627 q 578 784 578 731 q 545 884 578 842 q 468 925 513 925 q 372 887 412 925 q 331 796 331 849 m 225 250 q 285 117 225 172 q 429 61 345 61 q 545 96 488 61 q 643 190 601 130 l 412 477 q 275 366 326 426 q 225 250 225 305 m 136 236 q 198 396 136 315 q 369 540 260 477 q 273 689 305 620 q 240 811 240 758 q 304 945 240 888 q 458 1001 369 1001 q 608 937 545 1001 q 670 784 670 873 q 621 645 670 713 q 488 528 572 576 l 685 271 q 702 353 696 315 q 708 426 708 392 l 785 426 q 774 298 785 355 q 739 202 762 241 l 898 -7 l 789 -7 l 681 121 q 565 19 636 56 q 414 -18 494 -18 q 217 57 298 -18 q 136 236 136 132 z "},"'":{"ha":389,"x_min":136,"x_max":255,"o":"m 255 901 l 187 901 l 136 1187 l 244 1187 l 255 901 z "},"(":{"ha":659,"x_min":136,"x_max":524,"o":"m 415 -298 q 208 68 279 -137 q 136 496 136 273 q 208 871 136 685 q 415 1219 279 1058 l 524 1219 q 302 861 380 1047 q 225 496 225 675 q 302 79 225 283 q 524 -298 380 -126 l 415 -298 z "},")":{"ha":632,"x_min":136,"x_max":496,"o":"m 136 -298 q 337 54 267 -141 q 407 461 407 250 q 337 867 407 671 q 136 1219 267 1062 l 225 1219 q 427 867 358 1062 q 496 461 496 671 q 427 54 496 250 q 225 -298 358 -141 l 136 -298 z "},"*":{"ha":758,"x_min":122,"x_max":637,"o":"m 285 543 l 203 595 l 339 758 l 132 723 l 122 831 l 330 812 l 213 958 l 312 1002 l 374 849 l 448 1002 l 537 958 l 429 812 l 637 840 l 637 741 l 429 758 l 583 595 l 483 543 l 393 741 l 285 543 z "},"+":{"ha":1183,"x_min":136,"x_max":1047,"o":"m 533 27 l 533 407 l 136 407 l 136 524 l 533 524 l 533 894 l 650 894 l 650 524 l 1047 524 l 1047 407 l 650 407 l 650 27 l 533 27 z "},",":{"ha":487,"x_min":136,"x_max":353,"o":"m 136 -180 l 208 136 l 353 136 l 217 -180 l 136 -180 z "},"-":{"ha":939,"x_min":136,"x_max":804,"o":"m 136 397 l 136 496 l 804 496 l 804 397 l 136 397 z "},".":{"ha":378,"x_min":136,"x_max":244,"o":"m 136 0 l 136 136 l 244 136 l 244 0 l 136 0 z "},"/":{"ha":911,"x_min":136,"x_max":777,"o":"m 136 -244 l 669 1202 l 777 1202 l 244 -244 l 136 -244 z "},":":{"ha":378,"x_min":136,"x_max":244,"o":"m 136 524 l 136 659 l 244 659 l 244 524 l 136 524 m 136 0 l 136 136 l 244 136 l 244 0 l 136 0 z "},";":{"ha":496,"x_min":136,"x_max":361,"o":"m 217 479 l 217 578 l 343 578 l 343 479 l 217 479 m 136 -180 l 217 136 l 361 136 l 217 -180 l 136 -180 z "},"<":{"ha":897,"x_min":136,"x_max":762,"o":"m 136 393 l 136 500 l 762 873 l 762 777 l 224 452 l 762 126 l 762 26 l 136 393 z "},"=":{"ha":1082,"x_min":136,"x_max":948,"o":"m 136 496 l 136 587 l 948 587 l 948 496 l 136 496 m 136 208 l 136 298 l 948 298 l 948 208 l 136 208 z "},">":{"ha":897,"x_min":136,"x_max":762,"o":"m 762 393 l 136 26 l 136 126 l 674 452 l 136 777 l 136 873 l 762 500 l 762 393 z "},"?":{"ha":902,"x_min":136,"x_max":768,"o":"m 334 225 l 334 506 q 581 627 486 547 q 677 795 677 708 q 606 928 677 872 q 434 985 534 985 q 309 954 372 985 q 190 867 245 922 l 136 939 q 278 1039 201 1004 q 434 1074 355 1074 q 670 992 572 1074 q 768 795 768 910 q 673 595 768 692 q 425 442 579 499 l 425 225 l 334 225 m 316 0 l 316 118 l 442 118 l 442 0 l 316 0 z "},"@":{"ha":1415,"x_min":136,"x_max":1280,"o":"m 518 434 q 565 305 518 359 q 681 251 612 251 q 797 305 750 251 q 844 434 844 359 q 797 561 844 507 q 681 614 750 614 q 565 561 612 614 q 518 434 518 507 m 430 434 q 503 616 430 540 q 681 693 576 693 q 770 674 728 693 q 844 620 812 655 l 844 685 l 933 685 l 933 282 q 957 235 933 255 q 1015 214 981 214 q 1141 288 1089 214 q 1194 467 1194 361 q 1057 771 1194 644 q 726 898 920 898 q 368 760 517 898 q 220 426 220 621 q 368 125 220 250 q 726 0 517 0 q 878 22 807 0 q 1004 85 949 43 l 1047 11 q 897 -62 979 -37 q 726 -87 815 -87 q 309 63 483 -87 q 136 426 136 213 q 309 818 136 655 q 726 981 483 981 q 1118 830 955 981 q 1280 467 1280 680 q 1203 228 1280 327 q 1015 129 1126 129 q 904 162 952 129 q 848 247 856 195 q 779 184 823 206 q 681 161 734 161 q 502 241 574 161 q 430 434 430 321 z "},"[":{"ha":532,"x_min":136,"x_max":397,"o":"m 136 -361 l 136 1282 l 397 1282 l 397 1183 l 225 1183 l 225 -262 l 397 -262 l 397 -361 l 136 -361 z "},"\\":{"ha":821,"x_min":136,"x_max":686,"o":"m 686 -175 l 594 -175 l 136 1101 l 228 1101 l 686 -175 z "},"]":{"ha":532,"x_min":136,"x_max":397,"o":"m 136 -361 l 136 -262 l 298 -262 l 298 1183 l 136 1183 l 136 1282 l 397 1282 l 397 -361 l 136 -361 z "},"^":{"ha":910,"x_min":136,"x_max":774,"o":"m 393 652 l 511 652 l 774 187 l 669 187 l 456 574 l 241 187 l 136 187 l 393 652 z "},"_":{"ha":1237,"x_min":136,"x_max":1101,"o":"m 136 -448 l 136 -355 l 1101 -355 l 1101 -448 l 136 -448 z "},"`":{"ha":0,"x_min":0,"x_max":191,"o":"m 191 901 l 125 901 l 0 1187 l 118 1187 l 191 901 z "},"{":{"ha":656,"x_min":136,"x_max":522,"o":"m 136 420 q 232 467 191 420 q 273 578 273 513 l 273 757 q 346 972 273 883 q 522 1062 419 1062 l 522 991 q 408 923 456 991 q 359 757 359 854 l 359 578 q 329 468 359 517 q 247 401 298 419 q 329 333 298 382 q 359 220 359 283 l 359 43 q 408 -123 359 -54 q 522 -191 456 -191 l 522 -263 q 346 -173 419 -263 q 273 43 273 -83 l 273 220 q 232 328 273 283 q 136 372 191 372 l 136 420 z "},"|":{"ha":361,"x_min":136,"x_max":225,"o":"m 136 -442 l 136 1355 l 225 1355 l 225 -442 l 136 -442 z "},"}":{"ha":659,"x_min":136,"x_max":524,"o":"m 524 468 l 524 419 q 427 375 468 419 q 387 267 387 331 l 387 91 q 313 -127 387 -37 q 136 -217 240 -217 l 136 -145 q 252 -76 203 -145 q 300 91 300 -7 l 300 267 q 332 376 300 327 q 415 442 363 425 q 332 511 363 461 q 300 625 300 562 l 300 804 q 252 970 300 901 q 136 1039 203 1039 l 136 1109 q 313 1020 240 1109 q 387 804 387 930 l 387 625 q 427 514 387 560 q 524 468 468 468 z "},"~":{"ha":978,"x_min":136,"x_max":844,"o":"m 184 412 l 136 473 q 230 532 180 511 q 327 552 279 552 q 413 541 374 552 q 477 510 452 530 q 556 456 518 475 q 623 437 594 437 q 716 458 671 437 q 793 518 761 480 l 844 461 q 746 387 804 414 q 623 361 688 361 q 544 374 582 361 q 477 412 506 387 q 408 453 446 439 q 328 467 369 467 q 252 453 290 467 q 184 412 214 439 z "},"¢":{"ha":1016,"x_min":136,"x_max":882,"o":"m 605 807 q 553 817 576 812 q 513 821 529 821 q 310 720 387 821 q 233 452 233 620 q 261 278 233 359 q 342 137 289 197 l 605 807 m 136 452 q 239 779 136 655 q 513 903 342 903 q 576 899 547 903 q 632 890 606 895 l 713 1090 l 804 1090 l 712 854 q 825 741 783 807 q 873 605 868 675 l 773 605 q 746 690 769 647 q 681 773 723 734 l 419 96 q 470 84 446 88 q 513 80 494 80 q 701 142 627 80 q 784 309 774 203 l 882 309 q 768 81 868 167 q 513 -4 669 -4 q 450 1 483 -4 q 387 15 418 5 l 315 -170 l 224 -170 l 311 50 q 182 216 228 110 q 136 452 136 323 z "},"×":{"ha":902,"x_min":136,"x_max":768,"o":"m 208 126 l 136 198 l 380 442 l 136 686 l 208 758 l 452 515 l 696 758 l 768 686 l 524 442 l 768 198 l 696 126 l 452 370 l 208 126 z "},"÷":{"ha":1128,"x_min":136,"x_max":993,"o":"m 677 145 q 646 68 677 99 q 568 37 614 37 q 498 68 528 37 q 469 145 469 99 q 498 215 469 186 q 568 244 528 244 q 646 215 614 244 q 677 145 677 186 m 993 388 l 136 388 l 136 496 l 993 496 l 993 388 m 677 750 q 646 673 677 704 q 568 642 614 642 q 498 673 528 642 q 469 750 469 704 q 501 827 469 795 q 578 859 533 859 q 648 827 620 859 q 677 750 677 795 z "},"ʼ":{"ha":426,"x_min":132,"x_max":296,"o":"m 296 1046 q 292 967 296 1002 q 279 901 288 932 q 260 844 271 871 q 232 791 248 818 l 132 791 q 189 898 168 844 q 209 1002 209 952 l 137 1002 l 137 1164 l 296 1164 l 296 1046 z "},"ऀ":{"ha":0,"x_min":-468,"x_max":110,"o":"m -241 1147 l -125 1147 l -125 1029 l -241 1029 l -241 1147 m -179 1345 q 9 1274 -72 1345 q 110 1093 91 1203 l 11 1093 q -56 1215 -1 1166 q -179 1264 -110 1264 q -301 1215 -247 1264 q -369 1093 -355 1166 l -468 1093 q -366 1274 -448 1203 q -179 1345 -285 1345 z "},"ँ":{"ha":0,"x_min":-468,"x_max":110,"o":"m -241 1227 l -241 1345 l -125 1345 l -125 1227 l -241 1227 m -179 1029 q -366 1101 -285 1029 q -468 1282 -448 1172 l -369 1282 q -301 1160 -355 1208 q -179 1111 -247 1111 q -56 1160 -110 1111 q 11 1282 -1 1208 l 110 1282 q 9 1101 91 1172 q -179 1029 -72 1029 z "},"ं":{"ha":0,"x_min":-240,"x_max":-104,"o":"m -240 1128 l -240 1255 l -104 1255 l -104 1128 l -240 1128 z "},"ः":{"ha":460,"x_min":136,"x_max":326,"o":"m 225 541 q 161 570 187 541 q 136 642 136 600 q 161 711 136 682 q 225 741 187 741 q 296 711 267 741 q 326 642 326 682 q 296 570 326 600 q 225 541 267 541 m 225 145 q 161 174 187 145 q 136 244 136 202 q 161 314 136 285 q 225 343 187 343 q 296 314 267 343 q 326 244 326 285 q 296 174 326 202 q 225 145 267 145 z "},"ऄ":{"ha":1042,"x_min":31,"x_max":1061,"o":"m 419 64 q 209 154 311 64 q 31 407 107 244 l 98 445 q 247 230 163 307 q 419 153 331 153 q 515 195 475 153 q 555 296 555 236 q 509 419 555 369 q 401 469 464 469 q 359 465 381 469 q 311 452 336 461 l 274 533 q 418 589 355 540 q 480 696 480 639 q 449 785 480 747 q 374 822 418 822 q 264 789 321 822 q 157 696 208 755 l 94 758 q 215 865 141 827 q 374 903 289 903 q 515 843 457 903 q 572 696 572 783 q 551 608 572 650 q 491 533 529 566 q 613 473 560 494 q 699 452 666 452 q 749 463 719 452 q 817 496 779 475 l 817 822 l 654 822 l 654 903 l 822 903 q 769 1037 822 981 q 642 1093 716 1093 q 466 1162 543 1093 q 370 1337 389 1230 l 461 1337 q 525 1214 473 1263 q 642 1165 576 1165 q 833 1088 754 1165 q 913 903 913 1012 l 1061 903 l 1061 822 l 906 822 l 906 0 l 817 0 l 817 407 q 772 379 795 388 q 726 370 750 370 q 657 378 688 370 q 609 397 627 385 q 635 357 627 382 q 644 298 644 331 q 578 132 644 201 q 419 64 513 64 z "},"अ":{"ha":1042,"x_min":31,"x_max":1061,"o":"m 419 64 q 209 154 311 64 q 31 407 107 244 l 98 445 q 247 230 163 307 q 419 153 331 153 q 515 195 475 153 q 555 296 555 236 q 509 419 555 369 q 401 469 464 469 q 359 465 381 469 q 311 452 336 461 l 274 533 q 418 589 355 540 q 480 696 480 639 q 449 785 480 747 q 374 822 418 822 q 264 789 321 822 q 157 696 208 755 l 94 758 q 215 865 141 827 q 374 903 289 903 q 515 843 457 903 q 572 696 572 783 q 551 608 572 650 q 491 533 529 566 q 613 473 560 494 q 699 452 666 452 q 749 463 719 452 q 817 496 779 475 l 817 822 l 654 822 l 654 903 l 1061 903 l 1061 822 l 906 822 l 906 0 l 817 0 l 817 407 q 772 379 795 388 q 726 370 750 370 q 657 378 688 370 q 609 397 627 385 q 635 357 627 382 q 644 298 644 331 q 578 132 644 201 q 419 64 513 64 z "},"आ":{"ha":1413,"x_min":33,"x_max":1432,"o":"m 420 64 q 210 154 312 64 q 33 407 109 244 l 96 461 q 249 234 164 315 q 420 153 334 153 q 517 201 477 153 q 556 316 556 250 q 511 425 556 380 q 403 469 467 469 q 360 465 382 469 q 312 452 338 461 l 277 533 q 421 592 358 540 q 484 704 484 644 q 447 787 484 753 q 358 822 410 822 q 262 789 315 822 q 159 696 209 755 l 96 758 q 212 865 142 827 q 358 903 282 903 q 511 846 448 903 q 574 704 574 788 q 552 610 574 655 q 494 533 530 566 q 614 479 555 496 q 728 461 674 461 q 765 470 742 461 q 818 496 788 479 l 818 822 l 655 822 l 655 903 l 1432 903 l 1432 822 l 1279 822 l 1279 0 l 1188 0 l 1188 822 l 909 822 l 909 0 l 818 0 l 818 407 q 774 379 796 388 q 728 370 751 370 q 659 378 690 370 q 610 397 628 385 q 637 357 628 382 q 647 298 647 331 q 581 132 647 201 q 420 64 515 64 z "},"इ":{"ha":682,"x_min":-18,"x_max":701,"o":"m -18 822 l -18 903 l 701 903 l 701 822 l 544 822 l 544 587 l 218 587 q 180 576 197 587 q 164 551 164 566 q 222 465 164 522 q 309 407 279 407 q 399 429 339 407 q 490 452 458 452 q 578 406 541 452 q 616 298 616 361 q 547 106 616 186 q 381 27 479 27 q 472 -65 415 -22 q 606 -145 529 -109 l 562 -217 q 391 -99 464 -161 q 273 27 317 -37 q 119 62 182 27 q 56 145 56 96 q 82 208 56 182 q 146 235 109 235 q 249 199 198 235 q 336 99 300 163 q 469 158 414 99 q 525 298 525 217 q 515 342 525 323 q 490 361 505 361 q 399 338 458 361 q 309 316 339 316 q 161 405 251 316 q 72 551 72 494 q 115 640 72 604 q 220 677 159 677 l 445 677 l 445 822 l -18 822 z "},"ई":{"ha":692,"x_min":-18,"x_max":709,"o":"m 563 -217 q 393 -99 467 -161 q 274 27 320 -37 q 121 62 184 27 q 58 145 58 96 q 84 208 58 182 q 148 235 110 235 q 251 199 201 235 q 338 99 301 163 q 477 158 419 99 q 536 298 536 217 q 523 342 536 323 q 491 361 510 361 q 450 357 469 361 q 410 343 430 353 q 356 323 381 331 q 311 316 331 316 q 159 405 251 316 q 66 551 66 494 q 112 640 66 604 q 220 677 157 677 l 456 677 l 456 822 l -18 822 l -18 903 l 435 903 q 363 991 388 944 q 338 1084 338 1039 q 401 1224 338 1166 q 555 1282 464 1282 q 604 1278 579 1282 q 654 1264 628 1274 l 654 1183 q 591 1204 616 1198 q 555 1210 567 1210 q 465 1173 502 1210 q 429 1084 429 1137 q 458 985 429 1034 q 540 903 488 937 l 709 903 l 709 822 l 545 822 l 545 587 l 220 587 q 182 576 198 587 q 167 551 167 566 q 224 465 167 522 q 311 407 282 407 q 348 413 326 407 q 401 430 370 419 q 452 446 429 441 q 491 452 475 452 q 587 406 547 452 q 627 298 627 361 q 561 106 627 186 q 401 27 495 27 q 479 -64 423 -22 q 617 -136 536 -107 l 563 -217 z "},"उ":{"ha":856,"x_min":-18,"x_max":873,"o":"m -18 822 l -18 903 l 873 903 l 873 822 l 681 822 q 722 753 708 791 q 735 677 735 715 q 711 569 735 617 q 644 496 686 521 q 737 418 703 477 q 772 279 772 358 q 700 101 772 175 q 528 27 628 27 q 258 174 388 27 q 31 587 129 321 l 104 620 q 302 250 191 381 q 528 118 414 118 q 635 165 590 118 q 681 279 681 213 q 638 408 681 354 q 536 461 595 461 l 355 461 l 320 541 l 518 541 q 608 581 571 541 q 644 677 644 621 q 623 753 644 715 q 563 822 601 791 l -18 822 z "},"ऊ":{"ha":1249,"x_min":-18,"x_max":1268,"o":"m -18 822 l -18 903 l 1268 903 l 1268 822 l 671 822 q 716 751 701 788 q 731 677 731 713 q 704 569 731 616 q 632 506 677 522 q 703 458 675 486 q 735 404 730 431 q 827 524 766 479 q 958 568 887 568 q 1124 505 1055 568 q 1192 353 1192 442 q 1152 183 1192 262 q 1039 54 1111 104 l 979 121 q 1069 216 1036 153 q 1101 353 1101 278 q 1059 448 1101 408 q 958 488 1017 488 q 834 414 890 488 q 758 225 779 339 q 675 83 745 140 q 515 27 605 27 q 238 188 372 27 q 37 605 104 349 l 118 642 q 290 264 179 410 q 515 118 401 118 q 629 171 582 118 q 677 298 677 224 q 629 413 677 365 q 515 461 582 461 l 353 461 l 316 541 l 496 541 q 597 581 556 541 q 639 677 639 621 q 616 747 639 709 q 551 822 593 785 l -18 822 z "},"ऋ":{"ha":1172,"x_min":-18,"x_max":1191,"o":"m 278 669 q 359 648 317 669 q 441 587 401 627 l 585 442 l 585 822 l -18 822 l -18 903 l 1191 903 l 1191 822 l 675 822 l 675 496 q 720 484 696 488 q 774 479 745 479 q 815 481 799 479 q 838 488 831 484 q 819 526 826 506 q 811 568 811 547 q 840 621 811 600 q 910 642 868 642 q 981 615 952 642 q 1009 551 1009 589 q 995 490 1009 517 q 955 452 981 463 q 1076 296 1034 374 q 1118 153 1118 218 q 1067 33 1118 83 q 947 -18 1017 -18 q 845 20 890 -18 q 784 118 800 58 l 865 153 q 894 95 871 118 q 947 72 917 72 q 1004 96 981 72 q 1028 153 1028 119 q 985 281 1028 213 q 865 415 943 350 q 823 402 845 407 q 774 397 800 397 q 716 402 741 397 q 675 415 692 407 l 675 0 l 585 0 l 585 343 l 214 172 l 161 244 l 513 407 l 414 506 q 336 566 372 545 q 278 587 301 587 q 187 564 240 587 q 71 496 134 540 l 16 560 q 159 640 92 612 q 278 669 225 669 z "},"ऌ":{"ha":954,"x_min":-18,"x_max":971,"o":"m 339 0 q 136 153 213 54 q 60 361 60 251 q 125 546 60 469 q 285 623 191 623 q 382 594 334 623 q 467 515 430 566 q 533 584 494 556 q 620 623 572 612 l 620 822 l -18 822 l -18 903 l 971 903 l 971 822 l 709 822 l 709 623 q 840 516 791 598 q 890 326 890 434 q 834 152 890 228 q 692 54 779 76 q 594 -1 632 39 q 556 -91 556 -42 q 596 -174 556 -140 q 692 -208 636 -208 q 789 -196 745 -208 q 864 -163 833 -184 l 890 -244 q 802 -285 853 -271 q 692 -298 751 -298 q 532 -237 598 -298 q 467 -91 467 -176 q 520 51 467 -11 q 658 126 574 113 q 760 193 719 137 q 800 326 800 250 q 755 473 800 412 q 647 533 709 533 q 548 465 595 533 q 475 289 500 396 l 385 316 q 404 380 392 349 q 430 442 415 412 q 366 509 404 484 q 285 533 327 533 q 190 482 229 533 q 151 361 151 431 q 212 194 151 273 q 376 72 273 115 l 339 0 z "},"ऍ":{"ha":665,"x_min":-18,"x_max":682,"o":"m 336 1020 q 159 1089 236 1020 q 65 1264 83 1158 l 156 1264 q 220 1142 168 1191 q 336 1093 271 1093 q 453 1142 401 1093 q 517 1264 505 1191 l 606 1264 q 512 1089 589 1158 q 336 1020 435 1020 m 499 -172 l 426 -109 q 485 -85 463 -103 q 507 -45 507 -66 q 498 -16 507 -33 q 472 18 490 0 l 137 326 q 98 376 113 350 q 83 425 83 403 l 83 822 l -18 822 l -18 903 l 682 903 l 682 822 l 579 822 l 579 551 q 547 428 579 480 q 463 361 515 376 l 408 425 q 460 472 441 434 q 480 560 480 510 l 480 822 l 182 822 l 182 479 q 191 410 182 439 q 218 361 201 380 l 534 64 q 587 6 568 34 q 606 -45 606 -22 q 576 -119 606 -85 q 499 -172 547 -153 z "},"ऎ":{"ha":665,"x_min":-18,"x_max":682,"o":"m 300 1090 q 124 1159 201 1090 q 28 1335 47 1227 l 119 1335 q 183 1211 132 1260 q 300 1162 235 1162 q 491 1085 412 1162 q 571 903 570 1010 l 682 903 l 682 822 l 579 822 l 579 541 q 547 425 579 475 q 463 361 515 376 l 408 425 q 460 472 441 434 q 480 560 480 510 l 480 822 l 182 822 l 182 479 q 191 410 182 439 q 218 361 201 380 l 534 64 q 587 6 568 34 q 606 -45 606 -22 q 576 -119 606 -85 q 499 -172 547 -153 l 426 -109 q 485 -85 463 -103 q 507 -45 507 -66 q 498 -16 507 -33 q 472 18 490 0 l 137 326 q 98 376 113 350 q 83 425 83 403 l 83 822 l -18 822 l -18 903 l 480 903 q 427 1034 479 979 q 300 1090 374 1090 z "},"ए":{"ha":659,"x_min":-18,"x_max":677,"o":"m -18 822 l -18 903 l 677 903 l 677 822 l 568 822 l 568 557 q 539 429 568 484 q 461 361 510 374 l 407 425 q 459 472 439 434 q 479 560 479 510 l 479 822 l 172 822 l 172 479 q 184 414 172 445 q 217 361 195 382 l 533 64 q 586 6 567 34 q 605 -45 605 -22 q 575 -119 605 -85 q 496 -172 545 -153 l 425 -109 q 484 -85 461 -103 q 506 -45 506 -66 q 497 -16 506 -33 q 469 18 488 0 l 136 326 q 96 390 110 350 q 81 475 81 430 l 81 822 l -18 822 z "},"ऐ":{"ha":666,"x_min":-18,"x_max":685,"o":"m -18 822 l -18 903 l 477 903 l 206 1210 l 288 1282 l 578 903 l 685 903 l 685 822 l 585 822 l 585 560 q 554 446 585 500 q 468 353 524 391 l 414 425 q 473 493 452 457 q 495 563 495 529 l 495 822 l 170 822 l 170 461 q 189 408 170 439 q 241 343 208 377 l 540 64 q 587 5 571 33 q 604 -45 604 -23 q 574 -119 604 -85 q 495 -172 544 -153 l 423 -109 q 486 -84 461 -102 q 510 -45 510 -66 q 496 -9 510 -31 q 458 37 483 12 l 161 316 q 102 387 123 349 q 80 463 80 425 l 80 822 l -18 822 z "},"ऑ":{"ha":1413,"x_min":33,"x_max":1432,"o":"m 1155 1083 q 1117 1047 1155 1083 q 981 1012 1078 1012 q 806 1083 883 1012 q 709 1264 730 1154 l 800 1264 q 864 1142 812 1191 q 981 1093 916 1093 q 1097 1142 1046 1093 q 1161 1264 1149 1191 l 1252 1264 q 1155 1083 1232 1154 m 420 64 q 210 154 312 64 q 33 407 109 244 l 96 461 q 249 234 164 315 q 420 153 334 153 q 517 201 477 153 q 556 316 556 250 q 511 425 556 380 q 403 469 467 469 q 360 465 382 469 q 312 452 338 461 l 277 533 q 421 589 358 540 q 484 696 484 639 q 447 779 484 745 q 358 812 410 812 q 258 782 311 812 q 159 696 206 751 l 96 758 q 212 865 142 827 q 358 903 282 903 q 511 843 448 903 q 574 696 574 783 q 552 608 574 650 q 494 533 530 566 q 612 479 555 496 q 719 461 670 461 q 762 470 736 461 q 818 496 788 479 l 818 822 l 655 822 l 655 903 l 1432 903 l 1432 822 l 1279 822 l 1279 0 l 1188 0 l 1188 822 l 909 822 l 909 0 l 818 0 l 818 407 q 771 379 796 388 q 719 370 746 370 q 656 378 685 370 q 610 397 628 385 q 637 356 628 380 q 647 307 647 332 q 581 135 647 206 q 420 64 515 64 z "},"ऒ":{"ha":1413,"x_min":33,"x_max":1432,"o":"m 1008 1093 q 832 1162 909 1093 q 736 1337 755 1230 l 827 1337 q 891 1214 840 1263 q 1008 1165 943 1165 q 1200 1088 1120 1165 q 1279 903 1279 1012 l 1432 903 l 1432 822 l 1279 822 l 1279 0 l 1188 0 l 1188 822 l 909 822 l 909 0 l 818 0 l 818 407 q 774 379 796 388 q 728 370 751 370 q 659 378 690 370 q 610 397 628 385 q 637 357 628 382 q 647 298 647 331 q 581 132 647 201 q 420 64 515 64 q 210 154 312 64 q 33 407 109 244 l 96 461 q 249 234 164 315 q 420 153 334 153 q 517 201 477 153 q 556 316 556 250 q 511 425 556 380 q 403 469 467 469 q 360 465 382 469 q 312 452 338 461 l 277 533 q 421 592 358 540 q 484 704 484 644 q 447 787 484 753 q 358 822 410 822 q 262 789 315 822 q 159 696 209 755 l 96 758 q 216 871 146 831 q 358 911 285 911 q 511 851 448 911 q 574 704 574 791 q 552 610 574 655 q 494 533 530 566 q 619 473 562 494 q 719 452 677 452 q 754 463 731 452 q 818 496 777 473 l 818 822 l 655 822 l 655 903 l 1188 903 q 1135 1037 1188 981 q 1008 1093 1082 1093 z "},"ओ":{"ha":1413,"x_min":33,"x_max":1432,"o":"m 420 64 q 210 154 312 64 q 33 407 109 244 l 96 461 q 249 234 164 315 q 420 153 334 153 q 517 196 477 153 q 556 298 556 239 q 511 419 556 369 q 403 469 467 469 q 360 465 382 469 q 312 452 338 461 l 277 533 q 421 592 358 540 q 484 704 484 644 q 447 787 484 753 q 358 822 410 822 q 262 789 315 822 q 159 696 209 755 l 96 758 q 216 871 146 831 q 358 911 285 911 q 511 851 448 911 q 574 704 574 791 q 552 610 574 655 q 494 533 530 566 q 616 473 562 494 q 709 452 671 452 q 760 463 731 452 q 818 496 788 475 l 818 822 l 655 822 l 655 903 l 1181 903 l 854 1301 l 917 1355 l 1271 903 l 1432 903 l 1432 822 l 1279 822 l 1279 0 l 1188 0 l 1188 822 l 909 822 l 909 0 l 818 0 l 818 407 q 774 379 796 388 q 728 370 751 370 q 659 378 690 370 q 610 397 628 385 q 637 357 628 382 q 647 298 647 331 q 581 132 647 201 q 420 64 515 64 z "},"औ":{"ha":1413,"x_min":33,"x_max":1432,"o":"m 420 64 q 210 154 312 64 q 33 407 109 244 l 96 461 q 249 234 164 315 q 420 153 334 153 q 517 196 477 153 q 556 298 556 239 q 511 419 556 369 q 403 469 467 469 q 360 465 382 469 q 312 452 338 461 l 277 533 q 421 589 358 540 q 484 696 484 639 q 441 785 484 747 q 339 822 399 822 q 252 791 298 822 q 168 704 206 761 l 96 758 q 212 871 146 831 q 339 911 277 911 q 505 848 437 911 q 574 696 574 785 q 552 608 574 650 q 494 533 530 566 q 619 473 562 494 q 719 452 677 452 q 754 463 731 452 q 818 496 777 473 l 818 822 l 655 822 l 655 903 l 1147 903 l 773 1147 l 827 1227 l 1225 911 l 1035 1301 l 1126 1355 l 1275 903 l 1432 903 l 1432 822 l 1279 822 l 1279 0 l 1188 0 l 1188 822 l 909 822 l 909 0 l 818 0 l 818 407 q 774 379 796 388 q 728 370 751 370 q 659 378 690 370 q 610 397 628 385 q 637 357 628 382 q 647 298 647 331 q 581 132 647 201 q 420 64 515 64 z "},"क":{"ha":1016,"x_min":-18,"x_max":1035,"o":"m -18 822 l -18 903 l 1035 903 l 1035 822 l 557 822 l 557 578 q 637 657 587 628 q 747 686 688 686 q 895 615 834 686 q 955 442 955 544 q 910 271 955 355 q 784 118 865 186 l 703 172 q 822 297 779 225 q 865 442 865 369 q 831 551 865 506 q 747 595 796 595 q 631 548 685 595 q 557 425 578 500 l 557 0 l 468 0 l 468 271 q 389 212 435 233 q 288 190 342 190 q 121 258 190 190 q 53 425 53 327 q 132 610 53 533 q 323 686 212 686 q 379 682 355 686 q 414 669 403 677 l 396 578 q 361 591 380 587 q 323 595 343 595 q 196 545 250 595 q 142 425 142 495 q 185 322 142 365 q 288 279 228 279 q 388 311 339 279 q 468 397 437 343 l 468 822 l -18 822 z "},"ख":{"ha":1119,"x_min":-18,"x_max":1138,"o":"m 551 81 q 745 139 652 81 q 894 298 837 197 l 894 370 q 821 323 859 339 q 750 307 784 307 q 596 363 659 307 q 533 500 533 420 q 596 639 533 582 q 750 696 659 696 q 814 688 784 696 q 867 669 844 681 l 867 578 q 802 597 831 590 q 750 605 772 605 q 660 574 697 605 q 623 500 623 544 q 660 427 623 457 q 750 397 697 397 q 816 416 779 397 q 894 469 853 435 l 894 822 l 397 822 l 397 623 q 349 475 397 536 q 235 415 301 415 q 210 418 222 415 q 190 425 198 420 q 345 175 245 269 q 551 81 445 81 m -18 822 l -18 903 l 1138 903 l 1138 822 l 985 822 l 985 0 l 894 0 l 894 180 q 743 48 834 96 q 551 0 652 0 q 250 166 393 0 q 37 595 107 332 l 109 632 q 163 540 129 574 q 235 506 198 506 q 286 540 266 506 q 307 623 307 574 l 307 822 l -18 822 z "},"ग":{"ha":701,"x_min":-18,"x_max":720,"o":"m -18 822 l -18 903 l 720 903 l 720 822 l 567 822 l 567 0 l 477 0 l 477 822 l 251 822 l 251 380 q 237 342 251 358 q 206 326 224 326 q 99 410 172 326 q 26 533 26 495 q 37 557 26 547 q 61 568 47 568 l 125 568 q 151 582 140 568 q 161 614 161 595 l 161 822 l -18 822 z "},"घ":{"ha":863,"x_min":-18,"x_max":882,"o":"m 358 244 q 499 286 426 244 q 637 407 572 328 l 637 822 l 222 822 q 176 776 193 806 q 159 713 159 746 q 204 630 159 665 q 312 595 250 595 l 430 595 l 457 515 l 376 515 q 242 475 298 515 q 186 380 186 435 q 237 283 186 323 q 358 244 288 244 m -18 822 l -18 903 l 882 903 l 882 822 l 728 822 l 728 0 l 637 0 l 637 289 q 499 189 572 224 q 358 153 426 153 q 173 219 250 153 q 96 380 96 285 q 122 472 96 429 q 195 541 148 515 q 103 610 137 562 q 69 713 69 658 q 81 768 69 741 q 114 822 92 796 l -18 822 z "},"ङ":{"ha":972,"x_min":-18,"x_max":991,"o":"m 884 452 q 838 471 859 452 q 818 515 818 490 q 838 559 818 540 q 884 578 859 578 q 934 559 914 578 q 954 515 954 540 q 934 471 954 490 q 884 452 914 452 m -18 822 l -18 903 l 991 903 l 991 822 l 719 822 l 719 595 l 412 595 q 380 585 393 595 q 366 560 366 574 q 417 465 366 522 q 502 407 468 407 q 588 429 533 407 q 674 452 643 452 q 770 409 730 452 q 810 307 810 366 q 730 102 810 187 q 538 18 650 18 q 270 127 408 18 q 23 425 132 236 l 96 479 q 313 208 195 307 q 538 109 431 109 q 665 166 612 109 q 719 307 719 224 q 705 345 719 328 q 674 361 692 361 q 588 338 643 361 q 502 316 533 316 q 361 408 446 316 q 277 560 277 500 q 316 643 277 609 q 412 677 355 677 l 628 677 l 628 822 l -18 822 z "},"च":{"ha":864,"x_min":-18,"x_max":883,"o":"m -18 822 l -18 903 l 883 903 l 883 822 l 730 822 l 730 0 l 639 0 l 639 326 q 521 206 585 250 q 396 163 457 163 q 242 226 305 163 q 179 380 179 289 q 205 498 179 445 q 278 578 231 551 l 16 578 l 16 669 l 549 669 l 549 578 l 423 578 q 311 498 354 552 q 269 380 269 445 q 306 290 269 327 q 396 252 343 252 q 518 309 453 252 q 639 461 583 365 l 639 822 l -18 822 z "},"छ":{"ha":962,"x_min":-18,"x_max":981,"o":"m 709 298 q 789 387 761 334 q 818 496 818 439 q 787 567 818 538 q 709 595 755 595 q 640 564 669 595 q 610 488 610 533 q 637 381 610 431 q 709 298 663 331 m 420 136 q 536 159 479 136 q 647 225 594 182 q 553 355 585 288 q 521 488 521 423 q 561 619 521 563 q 665 686 601 675 l 665 822 l 231 822 q 178 758 197 793 q 159 686 159 723 q 207 597 159 633 q 321 560 255 560 l 420 560 l 420 469 l 349 469 q 246 419 289 469 q 203 298 203 369 q 267 183 203 231 q 420 136 331 136 m 420 45 q 204 119 294 45 q 114 298 114 193 q 140 418 114 363 q 213 506 167 473 q 108 585 146 536 q 69 686 69 633 q 83 768 69 731 q 123 822 98 804 l -18 822 l -18 903 l 981 903 l 981 822 l 755 822 l 755 686 q 865 621 822 674 q 909 496 909 567 q 751 191 909 338 q 420 45 593 45 z "},"ज":{"ha":987,"x_min":-18,"x_max":1006,"o":"m 419 109 q 216 239 321 109 q 31 587 110 370 l 113 623 q 266 314 182 430 q 419 198 350 198 q 496 233 464 198 q 528 316 528 267 q 488 475 528 393 q 374 632 448 557 l 762 632 l 762 822 l -18 822 l -18 903 l 1006 903 l 1006 822 l 853 822 l 853 0 l 762 0 l 762 541 l 545 541 q 600 433 582 491 q 617 316 617 376 q 559 169 617 229 q 419 109 502 109 z "},"झ":{"ha":991,"x_min":-18,"x_max":1009,"o":"m 648 415 q 699 425 669 415 q 766 452 728 434 l 766 822 l 513 822 l 513 605 l 197 605 q 165 597 179 605 q 152 578 152 589 q 193 493 152 544 q 260 442 233 442 q 337 460 288 442 q 414 479 387 479 q 463 471 439 479 q 505 452 486 464 q 566 425 529 434 q 648 415 604 415 m 431 -64 q 322 -2 372 -37 q 233 72 273 33 q 112 104 163 72 q 61 180 61 136 q 82 232 61 212 q 134 252 103 252 q 211 229 172 252 q 278 163 250 206 q 407 224 355 176 q 458 334 458 273 q 445 372 458 355 q 414 388 431 388 q 337 370 387 388 q 260 353 288 353 q 136 437 212 353 q 61 578 61 522 q 101 661 61 627 q 197 696 141 696 l 423 696 l 423 822 l -18 822 l -18 903 l 1009 903 l 1009 822 l 856 822 l 856 0 l 766 0 l 766 361 q 707 341 736 349 q 648 334 677 334 q 598 338 623 334 q 549 353 574 343 q 490 184 549 251 q 323 99 430 118 q 408 36 369 61 q 477 0 446 11 l 431 -64 z "},"ञ":{"ha":1000,"x_min":-18,"x_max":1019,"o":"m 296 163 q 153 208 225 163 q 26 334 81 252 l 88 397 q 182 292 126 331 q 296 252 239 252 q 417 306 366 252 q 468 434 468 359 q 425 542 468 496 q 323 587 382 587 q 239 568 279 587 q 170 515 198 549 l 107 587 q 206 654 151 631 q 323 677 262 677 q 470 624 404 677 q 557 488 536 571 q 592 468 568 475 q 648 461 616 461 q 720 470 688 461 q 774 496 753 479 l 774 822 l -18 822 l -18 903 l 1019 903 l 1019 822 l 865 822 l 865 0 l 774 0 l 774 397 q 707 378 739 385 q 648 370 674 370 q 604 378 627 370 q 557 397 582 385 q 466 229 540 296 q 296 163 392 163 z "},"ट":{"ha":766,"x_min":-18,"x_max":785,"o":"m 441 18 q 172 129 283 18 q 61 397 61 240 q 124 570 61 499 q 278 642 187 642 l 522 642 l 522 822 l -18 822 l -18 903 l 785 903 l 785 822 l 612 822 l 612 551 l 278 551 q 189 506 225 551 q 152 397 152 461 q 237 193 152 278 q 441 109 321 109 q 579 142 517 109 q 675 235 642 176 l 747 172 q 624 60 707 102 q 441 18 541 18 z "},"ठ":{"ha":787,"x_min":-18,"x_max":806,"o":"m 439 9 q 179 131 298 9 q 60 397 60 252 q 128 576 60 502 q 294 650 197 650 l 521 650 l 521 822 l -18 822 l -18 903 l 806 903 l 806 822 l 610 822 l 610 560 l 294 560 q 193 512 235 560 q 151 397 151 464 q 241 193 151 288 q 439 99 332 99 q 572 157 517 99 q 628 298 628 214 q 600 401 628 349 q 521 496 572 453 l 593 551 q 686 435 652 500 q 719 298 719 369 q 637 94 719 179 q 439 9 555 9 z "},"ड":{"ha":856,"x_min":-18,"x_max":873,"o":"m 522 18 q 245 125 380 18 q 26 415 110 233 l 98 461 q 288 204 174 300 q 522 109 403 109 q 649 164 595 109 q 703 298 703 220 q 689 336 703 320 q 658 353 675 353 q 576 334 628 353 q 495 316 524 316 q 343 403 426 316 q 260 560 260 490 q 294 643 260 609 q 377 677 328 677 l 621 677 l 621 822 l -18 822 l -18 903 l 873 903 l 873 822 l 712 822 l 712 587 l 377 587 q 358 579 366 587 q 350 560 350 571 q 404 465 350 522 q 495 407 458 407 q 576 425 524 407 q 658 442 628 442 q 753 400 713 442 q 793 298 793 358 q 713 100 793 182 q 522 18 633 18 z "},"ढ":{"ha":785,"x_min":-18,"x_max":804,"o":"m 536 109 q 614 155 583 118 q 644 244 644 193 q 618 308 644 282 q 555 334 593 334 q 497 311 521 334 q 473 252 473 288 q 490 172 473 209 q 536 109 506 134 m -18 822 l -18 903 l 804 903 l 804 822 l 617 822 l 617 551 l 266 551 q 182 509 217 551 q 148 407 148 467 q 242 205 148 301 q 446 99 336 109 q 399 165 415 125 q 382 252 382 206 q 433 374 382 323 q 555 425 484 425 q 682 371 628 425 q 735 244 735 317 q 650 84 735 151 q 446 18 566 18 q 180 140 301 18 q 58 407 58 262 q 119 573 58 505 q 266 642 179 642 l 528 642 l 528 822 l -18 822 z "},"ण":{"ha":907,"x_min":-18,"x_max":926,"o":"m 304 307 q 387 347 353 307 q 420 442 420 387 l 420 822 l 176 822 l 176 442 q 214 347 176 387 q 304 307 251 307 m 304 217 q 150 283 213 217 q 87 442 87 349 l 87 822 l -18 822 l -18 903 l 926 903 l 926 822 l 773 822 l 773 0 l 682 0 l 682 822 l 511 822 l 511 442 q 450 283 511 349 q 304 217 388 217 z "},"त":{"ha":825,"x_min":-18,"x_max":844,"o":"m 58 442 q 114 589 58 529 q 247 650 170 650 l 600 650 l 600 822 l -18 822 l -18 903 l 844 903 l 844 822 l 690 822 l 690 0 l 600 0 l 600 560 l 247 560 q 177 526 206 560 q 148 442 148 491 q 210 256 148 355 q 382 64 271 157 l 328 0 q 130 224 201 109 q 58 442 58 339 z "},"थ":{"ha":929,"x_min":54,"x_max":948,"o":"m 407 180 q 178 270 278 180 q 54 496 77 359 q 100 490 69 491 q 190 488 130 488 q 356 544 288 488 q 425 677 425 600 q 382 792 425 745 q 279 840 339 840 q 191 811 228 840 q 153 741 153 783 q 185 683 153 707 q 262 659 217 659 l 262 568 q 118 616 172 568 q 64 741 64 663 q 127 874 64 818 q 279 930 190 930 q 446 857 377 930 q 515 677 515 783 q 418 479 515 562 q 180 397 320 397 q 269 305 208 339 q 407 271 331 271 q 558 316 480 271 q 704 442 636 361 l 704 822 l 614 822 l 614 903 l 948 903 l 948 822 l 795 822 l 795 0 l 704 0 l 704 326 q 558 218 636 256 q 407 180 480 180 z "},"द":{"ha":734,"x_min":-28,"x_max":753,"o":"m -28 822 l -28 903 l 753 903 l 753 822 l 609 822 l 609 587 l 256 587 q 167 550 203 587 q 130 461 130 513 q 233 294 130 363 q 483 225 336 225 q 511 334 483 289 q 582 380 540 380 q 633 359 612 380 q 654 307 654 338 q 632 235 654 271 q 572 172 610 198 l 671 0 l 590 -37 l 491 145 q 172 238 304 145 q 39 461 39 331 q 102 614 39 551 q 256 677 165 677 l 518 677 l 518 822 l -28 822 z "},"ध":{"ha":879,"x_min":49,"x_max":898,"o":"m 374 153 q 201 210 273 153 q 130 343 130 266 q 149 433 130 392 q 202 496 168 473 q 90 612 130 547 q 49 741 49 677 q 102 874 49 818 q 229 930 156 930 q 354 889 307 930 q 401 777 401 848 q 353 675 401 718 q 239 632 305 632 l 239 723 q 290 739 269 723 q 311 777 311 755 q 287 821 311 802 q 229 840 263 840 q 165 811 191 840 q 140 741 140 783 q 176 637 140 688 q 274 551 212 587 q 338 570 304 563 q 410 578 372 578 l 464 578 l 518 488 l 419 488 q 278 446 336 488 q 220 343 220 403 q 265 273 220 301 q 374 244 311 244 q 520 292 446 244 q 654 425 594 339 l 654 822 l 456 822 l 456 903 l 898 903 l 898 822 l 745 822 l 745 0 l 654 0 l 654 298 q 523 191 595 229 q 374 153 450 153 z "},"न":{"ha":793,"x_min":-18,"x_max":812,"o":"m 27 541 q 46 574 27 560 q 91 587 65 587 l 568 587 l 568 822 l -18 822 l -18 903 l 812 903 l 812 822 l 659 822 l 659 0 l 568 0 l 568 496 l 307 496 q 269 486 285 496 q 252 461 252 475 l 252 370 q 239 332 252 349 q 208 316 225 316 q 102 410 176 316 q 27 541 27 505 z "},"ऩ":{"ha":793,"x_min":-18,"x_max":812,"o":"m 307 -9 l 235 54 l 307 126 l 380 54 l 307 -9 m 27 541 q 46 574 27 560 q 91 587 65 587 l 568 587 l 568 822 l -18 822 l -18 903 l 812 903 l 812 822 l 659 822 l 659 0 l 568 0 l 568 496 l 307 496 q 269 486 285 496 q 252 461 252 475 l 252 370 q 239 332 252 349 q 208 316 225 316 q 102 410 176 316 q 27 541 27 505 z "},"प":{"ha":727,"x_min":-18,"x_max":746,"o":"m 321 353 q 426 387 377 353 q 502 479 475 420 l 502 822 l 168 822 l 168 496 q 213 395 168 437 q 321 353 258 353 m 77 496 l 77 822 l -18 822 l -18 903 l 746 903 l 746 822 l 593 822 l 593 0 l 502 0 l 502 343 q 416 283 463 304 q 321 262 369 262 q 149 330 220 262 q 77 496 77 399 z "},"फ":{"ha":1050,"x_min":-18,"x_max":1069,"o":"m 300 380 q 400 406 353 380 q 480 479 448 431 l 480 822 l 164 822 l 164 506 q 204 416 164 453 q 300 380 244 380 m 75 506 l 75 822 l -18 822 l -18 903 l 1069 903 l 1069 822 l 571 822 l 571 568 q 656 635 606 612 q 761 659 707 659 q 920 585 854 659 q 986 407 986 511 q 956 247 986 326 q 868 99 925 168 l 788 145 q 867 264 840 197 q 895 407 895 332 q 856 521 895 473 q 761 568 817 568 q 664 541 713 568 q 571 461 614 513 l 571 0 l 480 0 l 480 361 q 399 308 446 327 q 300 289 353 289 q 140 352 206 289 q 75 506 75 415 z "},"ब":{"ha":728,"x_min":-18,"x_max":747,"o":"m 305 289 q 365 298 338 289 q 414 326 392 307 l 170 524 q 150 485 157 507 q 142 434 142 463 q 191 332 142 374 q 305 289 239 289 m 53 434 q 132 618 53 541 q 323 696 212 696 q 388 688 358 696 q 441 669 418 681 l 414 595 q 371 610 393 605 q 323 614 349 614 q 256 604 283 614 q 214 578 228 594 l 477 380 l 505 415 l 505 822 l -18 822 l -18 903 l 747 903 l 747 822 l 594 822 l 594 0 l 505 0 l 505 289 q 410 222 461 245 q 305 198 358 198 q 127 267 201 198 q 53 434 53 336 z "},"भ":{"ha":891,"x_min":26,"x_max":910,"o":"m 161 442 q 174 468 161 457 q 206 479 187 479 l 278 479 l 278 741 q 254 805 278 779 q 197 831 231 831 q 139 812 163 831 q 115 768 115 793 q 139 716 115 736 q 197 696 163 696 l 197 605 q 76 653 126 605 q 26 768 26 701 q 76 876 26 831 q 197 921 126 921 q 318 868 267 921 q 369 741 369 815 l 369 479 l 666 479 l 666 822 l 431 822 l 431 903 l 910 903 l 910 822 l 757 822 l 757 0 l 666 0 l 666 388 l 369 388 l 369 316 q 355 290 369 301 q 323 279 342 279 q 229 347 296 279 q 161 442 161 415 z "},"म":{"ha":785,"x_min":-18,"x_max":804,"o":"m 235 524 l 560 524 l 560 822 l 235 822 l 235 524 m -18 822 l -18 903 l 804 903 l 804 822 l 650 822 l 650 0 l 560 0 l 560 434 l 235 434 l 235 370 q 227 332 235 349 q 208 316 218 316 q 102 384 176 316 q 27 479 27 452 q 41 510 27 496 q 72 524 54 524 l 145 524 l 145 822 l -18 822 z "},"य":{"ha":808,"x_min":-18,"x_max":827,"o":"m 349 262 q 482 300 419 262 q 583 407 545 339 l 583 822 l 277 822 q 330 733 311 780 q 349 642 349 686 q 287 502 349 563 q 132 425 225 441 q 206 308 145 354 q 349 262 267 262 m -18 822 l -18 903 l 827 903 l 827 822 l 674 822 l 674 0 l 583 0 l 583 279 q 470 200 530 228 q 349 172 410 172 q 125 267 218 172 q 33 496 33 361 q 197 536 136 496 q 258 642 258 576 q 235 732 258 685 q 168 822 212 779 l -18 822 z "},"र":{"ha":591,"x_min":-18,"x_max":610,"o":"m -18 822 l -18 903 l 610 903 l 610 822 l 488 822 l 488 614 q 432 473 488 530 q 298 415 376 415 q 269 420 288 415 q 225 434 251 425 q 363 239 283 332 q 541 64 442 146 l 488 0 q 227 275 343 121 q 27 605 110 429 l 109 650 q 184 545 132 585 q 298 506 236 506 q 368 537 339 506 q 397 614 397 568 l 397 822 l -18 822 z "},"ऱ":{"ha":600,"x_min":-18,"x_max":610,"o":"m 170 -9 l 98 54 l 170 126 l 241 54 l 170 -9 m -18 822 l -18 903 l 610 903 l 610 822 l 488 822 l 488 614 q 432 473 488 530 q 298 415 376 415 q 269 420 288 415 q 225 434 251 425 q 363 239 283 332 q 541 64 442 146 l 488 0 q 227 275 343 121 q 27 605 110 429 l 109 650 q 184 545 132 585 q 298 506 236 506 q 368 537 339 506 q 397 614 397 568 l 397 822 l -18 822 z "},"ल":{"ha":986,"x_min":-18,"x_max":1004,"o":"m -18 822 l -18 903 l 1004 903 l 1004 822 l 850 822 l 850 0 l 761 0 l 761 541 q 614 471 682 541 q 517 289 547 401 l 435 316 q 457 395 442 359 q 490 452 472 430 q 418 518 461 495 q 327 541 374 541 q 199 488 252 541 q 146 361 146 435 q 229 200 146 279 q 445 72 311 121 l 408 -9 q 153 151 250 49 q 56 361 56 252 q 135 553 56 473 q 327 632 214 632 q 453 606 393 632 q 552 533 513 579 q 647 606 593 579 q 761 632 701 632 l 761 822 l -18 822 z "},"ळ":{"ha":997,"x_min":-18,"x_max":1015,"o":"m 709 180 q 806 238 766 180 q 845 380 845 296 q 806 513 845 457 q 709 568 766 568 q 614 515 661 568 q 547 380 568 463 q 625 235 579 289 q 709 180 670 180 m 304 190 q 386 239 343 190 q 457 370 429 289 q 391 513 434 458 q 304 568 349 568 q 195 511 240 568 q 151 372 151 453 q 195 243 151 296 q 304 190 240 190 m -18 822 l -18 903 l 1015 903 l 1015 822 l 746 822 l 746 650 q 882 559 829 636 q 936 380 936 483 q 870 181 936 263 q 709 99 804 99 q 597 148 654 99 q 502 279 540 197 q 410 148 464 197 q 304 99 355 99 q 131 178 202 99 q 60 372 60 258 q 131 569 60 488 q 304 650 202 650 q 420 606 366 650 q 502 488 475 562 q 568 598 528 555 q 655 650 609 642 l 655 822 l -18 822 z "},"ऴ":{"ha":994,"x_min":-18,"x_max":1015,"o":"m 502 -27 l 430 45 l 502 118 l 574 45 l 502 -27 m 709 180 q 806 238 766 180 q 845 380 845 296 q 806 513 845 457 q 709 568 766 568 q 614 515 661 568 q 547 380 568 463 q 625 235 579 289 q 709 180 670 180 m 304 190 q 386 239 343 190 q 457 370 429 289 q 391 513 434 458 q 304 568 349 568 q 195 511 240 568 q 151 372 151 453 q 195 243 151 296 q 304 190 240 190 m -18 822 l -18 903 l 1015 903 l 1015 822 l 746 822 l 746 650 q 882 559 829 636 q 936 380 936 483 q 870 181 936 263 q 709 99 804 99 q 597 148 654 99 q 502 279 540 197 q 410 148 464 197 q 304 99 355 99 q 131 178 202 99 q 60 372 60 258 q 131 569 60 488 q 304 650 202 650 q 420 606 366 650 q 502 488 475 562 q 568 598 528 555 q 655 650 609 642 l 655 822 l -18 822 z "},"व":{"ha":736,"x_min":-18,"x_max":755,"o":"m -18 822 l -18 903 l 755 903 l 755 822 l 601 822 l 601 0 l 511 0 l 511 289 q 425 222 475 245 q 321 198 376 198 q 130 270 209 198 q 50 442 50 342 q 130 615 50 544 q 321 686 209 686 q 384 677 354 686 q 439 650 414 669 l 393 578 q 359 597 377 590 q 321 605 342 605 q 194 557 247 605 q 141 442 141 510 q 194 334 141 380 q 321 289 247 289 q 425 325 374 289 q 511 425 475 361 l 511 822 l -18 822 z "},"श":{"ha":917,"x_min":42,"x_max":936,"o":"m 511 822 l 511 903 l 936 903 l 936 822 l 783 822 l 783 0 l 692 0 l 692 822 l 511 822 m 267 614 q 351 642 312 614 q 412 713 391 669 q 357 799 392 766 q 285 831 323 831 q 208 797 240 831 q 176 713 176 762 q 203 643 176 671 q 267 614 229 614 m 448 0 l 42 343 l 87 407 q 149 359 126 374 q 186 343 172 343 q 359 422 288 343 q 430 614 430 502 q 362 548 407 572 q 267 524 317 524 q 140 580 193 524 q 87 713 87 636 q 144 861 87 800 q 285 921 202 921 q 452 831 382 921 q 521 614 521 741 q 438 377 521 475 q 240 279 355 279 l 502 64 l 448 0 z "},"ष":{"ha":726,"x_min":-18,"x_max":745,"o":"m 500 524 l 500 822 l 184 822 l 500 524 m 311 361 q 415 377 366 361 q 500 425 464 393 l 167 731 l 167 506 q 209 404 167 446 q 311 361 251 361 m -18 822 l -18 903 l 745 903 l 745 822 l 590 822 l 590 0 l 500 0 l 500 326 q 414 285 463 298 q 311 271 365 271 q 144 340 213 271 q 76 506 76 408 l 76 822 l -18 822 z "},"स":{"ha":962,"x_min":-18,"x_max":981,"o":"m -18 822 l -18 903 l 981 903 l 981 822 l 827 822 l 827 0 l 736 0 l 736 434 l 351 434 q 267 407 315 407 q 246 410 256 407 q 231 415 236 412 l 502 37 l 430 -9 l 23 568 l 96 623 q 163 525 125 562 q 240 488 202 488 q 304 514 278 488 q 331 578 331 540 l 331 822 l -18 822 m 412 524 l 736 524 l 736 822 l 420 822 l 420 578 q 412 524 420 549 z "},"ह":{"ha":715,"x_min":-18,"x_max":734,"o":"m -18 822 l -18 903 l 734 903 l 734 822 l 589 822 l 589 605 l 218 605 q 187 597 201 605 q 174 578 174 589 q 201 507 174 541 q 273 452 228 473 q 336 471 301 464 q 408 479 370 479 q 581 421 510 479 q 652 279 652 363 q 633 195 652 233 q 579 136 614 156 l 507 198 q 547 235 533 213 q 562 279 562 256 q 517 357 562 326 q 408 388 472 388 q 242 343 311 388 q 174 235 174 298 q 290 94 174 152 q 571 37 407 37 l 552 -45 q 220 37 358 -45 q 83 235 83 119 q 109 334 83 288 q 182 407 136 380 q 109 491 136 446 q 83 578 83 536 q 123 661 83 627 q 218 696 163 696 l 499 696 l 499 822 l -18 822 z "},"ऺ":{"ha":0,"x_min":-221,"x_max":-136,"o":"m -221 903 l -221 1114 l -137 1114 l -136 903 l -221 903 z "},"ऻ":{"ha":361,"x_min":-18,"x_max":380,"o":"m -18 822 l -18 903 l 136 903 l 136 1114 l 220 1114 l 221 903 l 380 903 l 380 822 l 225 822 l 225 0 l 136 0 l 136 822 l -18 822 z "},"़":{"ha":0,"x_min":-785,"x_max":-642,"o":"m -713 -126 l -785 -64 l -713 9 l -642 -64 l -713 -126 z "},"ऽ":{"ha":600,"x_min":34,"x_max":540,"o":"m 332 7 q 155 85 239 7 q 34 290 72 164 l 115 334 q 207 168 146 231 q 332 104 267 104 q 416 150 381 104 q 450 260 450 195 q 399 386 450 320 q 260 510 349 452 q 168 604 201 547 q 134 723 134 661 q 190 837 134 789 q 323 884 245 884 l 540 884 l 540 793 l 323 793 q 253 772 282 793 q 224 719 224 750 q 270 621 224 675 q 396 513 316 566 q 502 401 463 468 q 540 260 540 334 q 479 81 540 156 q 332 7 419 7 z "},"ा":{"ha":361,"x_min":-18,"x_max":380,"o":"m -18 822 l -18 903 l 380 903 l 380 822 l 225 822 l 225 0 l 136 0 l 136 822 l -18 822 z "},"ि":{"ha":361,"x_min":-18,"x_max":929,"o":"m -18 822 l -18 903 l 136 903 q 116 949 123 920 q 109 1020 109 979 q 193 1205 109 1128 q 397 1282 278 1282 q 686 1176 540 1282 q 929 902 833 1070 l 822 902 q 629 1117 746 1032 q 397 1202 511 1202 q 256 1148 315 1202 q 198 1020 198 1095 q 205 949 198 979 q 225 903 213 920 l 380 903 l 380 822 l 225 822 l 225 0 l 136 0 l 136 822 l -18 822 z "},"ी":{"ha":361,"x_min":-298,"x_max":380,"o":"m -18 822 l -18 903 l 136 903 q 51 1118 113 1034 q -81 1202 -11 1202 q -171 1167 -134 1202 q -208 1084 -208 1133 q -189 998 -208 1040 q -136 921 -170 955 l -235 921 q -282 994 -266 952 q -298 1084 -298 1036 q -235 1224 -298 1166 q -81 1282 -172 1282 q 110 1175 23 1282 q 225 903 197 1067 l 380 903 l 380 822 l 225 822 l 225 0 l 136 0 l 136 822 l -18 822 z "},"ु":{"ha":0,"x_min":-686,"x_max":9,"o":"m -271 -370 q -475 -323 -369 -370 q -686 -190 -582 -277 l -623 -109 q -433 -235 -524 -191 q -271 -279 -343 -279 q -137 -240 -193 -279 q -81 -145 -81 -201 q -111 -68 -81 -99 q -180 -37 -140 -37 q -262 -53 -224 -37 q -326 -99 -300 -69 l -388 -37 q -298 31 -353 7 q -180 54 -244 54 q -47 -3 -103 54 q 9 -145 9 -61 q -73 -304 9 -239 q -271 -370 -156 -370 z "},"ू":{"ha":0,"x_min":-397,"x_max":225,"o":"m -208 -343 q -341 -287 -285 -343 q -397 -153 -397 -231 q -332 0 -397 -64 q -172 64 -266 64 q 55 -39 -54 64 q 225 -307 164 -141 l 145 -343 q 5 -114 92 -201 q -172 -27 -81 -27 q -267 -64 -228 -27 q -307 -153 -307 -102 q -278 -224 -307 -195 q -208 -252 -250 -252 q -160 -241 -186 -252 q -109 -208 -134 -229 l -64 -289 q -138 -330 -102 -316 q -208 -343 -175 -343 z "},"ृ":{"ha":0,"x_min":-453,"x_max":-11,"o":"m -228 -370 q -387 -310 -321 -370 q -453 -163 -453 -250 q -382 -22 -453 -80 q -209 37 -311 37 l -129 37 l -129 -45 l -209 -45 q -318 -79 -273 -45 q -363 -163 -363 -114 q -323 -245 -363 -212 q -228 -279 -283 -279 q -131 -263 -175 -279 q -56 -217 -87 -247 l -11 -298 q -109 -351 -53 -332 q -228 -370 -164 -370 z "},"ॄ":{"ha":0,"x_min":-446,"x_max":-31,"o":"m -220 -361 q -380 -324 -315 -361 q -446 -235 -446 -288 q -419 -179 -446 -206 q -347 -136 -392 -152 q -406 -101 -382 -126 q -429 -45 -429 -76 q -389 32 -429 0 q -293 64 -349 64 l -130 64 l -130 0 l -274 0 q -326 -14 -305 0 q -347 -45 -347 -27 q -315 -83 -347 -66 q -239 -99 -283 -99 l -175 -99 l -175 -172 l -256 -172 q -333 -191 -301 -172 q -365 -235 -365 -209 q -328 -273 -365 -256 q -239 -289 -290 -289 q -129 -280 -175 -289 q -58 -252 -83 -271 l -31 -316 q -110 -349 -61 -338 q -220 -361 -159 -361 z "},"ॅ":{"ha":0,"x_min":-442,"x_max":99,"o":"m -172 1029 q -348 1099 -271 1029 q -442 1274 -425 1168 l -353 1274 q -288 1152 -339 1200 q -172 1103 -236 1103 q -56 1152 -107 1103 q 9 1274 -4 1200 l 99 1274 q 5 1099 81 1168 q -172 1029 -72 1029 z "},"ॆ":{"ha":0,"x_min":-671,"x_max":-130,"o":"m -401 1095 q -577 1163 -500 1095 q -671 1339 -654 1232 l -582 1339 q -517 1215 -568 1264 q -401 1166 -467 1166 q -210 1090 -289 1166 q -130 905 -130 1013 l -220 905 q -273 1038 -220 982 q -401 1095 -327 1095 z "},"े":{"ha":0,"x_min":-563,"x_max":-140,"o":"m -229 903 l -563 1301 l -500 1355 l -140 903 l -229 903 z "},"ै":{"ha":0,"x_min":-648,"x_max":-142,"o":"m -260 903 l -648 1147 l -594 1227 l -197 911 l -387 1301 l -296 1355 l -142 903 l -260 903 z "},"ॉ":{"ha":361,"x_min":-271,"x_max":380,"o":"m 176 1089 q 137 1055 176 1089 q 0 1020 99 1020 q -176 1089 -99 1020 q -271 1264 -252 1158 l -180 1264 q -117 1142 -168 1191 q 0 1093 -65 1093 q 117 1142 65 1093 q 180 1264 168 1191 l 271 1264 q 176 1089 252 1158 m -18 822 l -18 903 l 380 903 l 380 822 l 225 822 l 225 0 l 136 0 l 136 822 l -18 822 z "},"ॊ":{"ha":361,"x_min":-316,"x_max":380,"o":"m -45 1093 q -222 1162 -145 1093 q -316 1337 -298 1230 l -225 1337 q -161 1214 -213 1263 q -45 1165 -110 1165 q 146 1088 66 1165 q 225 903 225 1012 l 380 903 l 380 822 l 225 822 l 225 0 l 136 0 l 136 822 l -18 822 l -18 903 l 136 903 q 82 1037 136 981 q -45 1093 28 1093 z "},"ो":{"ha":361,"x_min":-198,"x_max":380,"o":"m -18 822 l -18 903 l 129 903 l -198 1301 l -136 1355 l 218 903 l 380 903 l 380 822 l 225 822 l 225 0 l 136 0 l 136 822 l -18 822 z "},"ौ":{"ha":361,"x_min":-271,"x_max":380,"o":"m -18 822 l -18 903 l 103 903 l -271 1147 l -217 1227 l 180 903 l -9 1301 l 81 1355 l 231 903 l 380 903 l 380 822 l 225 822 l 225 0 l 136 0 l 136 822 l -18 822 z "},"्":{"ha":0,"x_min":-282,"x_max":152,"o":"m -236 -136 l -282 -72 l -174 9 l 152 -244 l 98 -298 l -174 -81 l -236 -136 z "},"ॎ":{"ha":361,"x_min":136,"x_max":380,"o":"m 136 903 l 380 903 l 380 822 l 225 822 l 225 0 l 136 0 l 136 903 z "},"ॏ":{"ha":361,"x_min":-391,"x_max":380,"o":"m 227 903 l 380 903 l 380 822 l 225 822 l 225 0 l 136 0 l 136 822 l -18 822 l -18 903 l 84 903 q 35 960 66 936 q -73 1000 -5 991 q -99 998 -85 1001 q -151 994 -119 994 q -277 1025 -220 994 q -391 1171 -357 1067 l -301 1183 q -227 1085 -278 1111 q -144 1066 -189 1066 q -110 1069 -130 1066 q -69 1072 -90 1072 q -62 1072 -65 1072 q 66 1017 15 1072 q 133 903 111 971 l 182 903 q 157 996 182 951 q 47 1081 121 1063 q -106 1176 -50 1107 q -155 1324 -155 1236 q -153 1354 -155 1339 l -66 1331 q -68 1309 -68 1320 q -35 1211 -65 1246 q 66 1152 0 1169 q 209 1035 175 1123 q 228 930 227 989 q 227 903 228 916 z "},"ॐ":{"ha":1325,"x_min":26,"x_max":1263,"o":"m 901 1002 l 901 1101 l 1001 1101 l 1001 1002 l 901 1002 m 1155 890 q 1111 856 1155 890 q 947 822 1066 822 q 738 890 827 822 q 631 1066 648 959 l 720 1066 q 812 935 750 985 q 947 884 873 884 q 1081 935 1019 884 q 1172 1066 1143 985 l 1263 1066 q 1155 890 1244 959 m 529 623 q 488 719 529 680 q 388 758 446 758 q 296 722 345 758 q 206 623 247 686 l 137 680 q 254 804 187 758 q 391 850 321 850 q 553 784 486 850 q 621 623 621 718 q 600 543 621 583 q 540 469 578 502 q 619 436 578 448 q 703 425 661 425 q 785 449 746 425 q 848 515 823 473 q 924 588 873 562 q 1036 614 975 614 q 1197 532 1131 614 q 1263 334 1263 450 q 1200 136 1263 218 q 1046 54 1137 54 q 886 123 952 54 q 821 289 821 191 l 901 289 q 943 187 901 229 q 1046 145 986 145 q 1135 201 1099 145 q 1172 334 1172 256 q 1133 468 1172 412 q 1036 524 1093 524 q 954 495 996 524 q 883 415 911 467 q 812 355 861 377 q 703 334 764 334 q 669 338 692 334 q 612 353 647 343 q 632 311 625 336 q 639 252 639 285 q 576 87 639 156 q 423 18 513 18 q 202 106 311 18 q 26 343 94 195 l 107 388 q 252 184 167 260 q 423 109 338 109 q 512 151 475 109 q 549 252 549 193 q 520 361 549 316 q 450 407 491 407 q 408 404 426 407 q 377 397 391 401 l 323 461 q 469 515 408 468 q 529 623 529 563 z "},"॑":{"ha":0,"x_min":-233,"x_max":-115,"o":"m -233 963 l -233 1388 l -115 1388 l -115 963 l -233 963 z "},"॒":{"ha":0,"x_min":-864,"x_max":-151,"o":"m -864 -216 l -864 -134 l -151 -134 l -151 -216 l -864 -216 z "},"॓":{"ha":0,"x_min":-251,"x_max":-60,"o":"m -60 963 l -126 963 l -251 1249 l -133 1249 l -60 963 z "},"॔":{"ha":0,"x_min":-241,"x_max":-50,"o":"m -241 968 l -168 1255 l -50 1255 l -175 968 l -241 968 z "},"ॕ":{"ha":0,"x_min":-442,"x_max":99,"o":"m 96 985 l -438 985 l -438 1053 l 96 1053 l 96 985 m -172 1111 q -348 1180 -271 1111 q -442 1355 -425 1249 l -353 1355 q -288 1233 -339 1282 q -172 1184 -236 1184 q -56 1233 -107 1184 q 9 1355 -4 1282 l 99 1355 q 5 1180 81 1249 q -172 1111 -72 1111 z "},"ॖ":{"ha":0,"x_min":-663,"x_max":-85,"o":"m -374 -277 q -562 -209 -475 -282 q -663 -72 -648 -136 l -564 -72 q -496 -151 -564 -90 q -374 -193 -454 -191 q -251 -146 -307 -193 q -184 -72 -206 -111 l -85 -72 q -186 -209 -100 -133 q -374 -277 -262 -274 z "},"ॗ":{"ha":0,"x_min":-661,"x_max":-83,"o":"m -559 -206 q -661 -68 -646 -133 l -562 -68 q -494 -146 -562 -87 q -372 -189 -452 -187 q -248 -144 -304 -189 q -182 -68 -203 -106 l -83 -68 q -183 -206 -98 -130 q -372 -273 -259 -271 q -559 -206 -472 -278 m -556 -387 q -656 -252 -642 -324 l -562 -252 q -491 -331 -543 -304 q -372 -369 -416 -368 q -248 -323 -304 -369 q -182 -248 -203 -288 l -83 -248 q -183 -382 -96 -308 q -372 -450 -259 -448 q -556 -387 -473 -446 z "},"क़":{"ha":1021,"x_min":-18,"x_max":1035,"o":"m 277 -18 l 203 54 l 277 126 l 349 54 l 277 -18 m -18 822 l -18 903 l 1035 903 l 1035 822 l 557 822 l 557 578 q 637 657 587 628 q 747 686 688 686 q 895 615 834 686 q 955 442 955 544 q 910 271 955 355 q 784 118 865 186 l 703 172 q 822 297 779 225 q 865 442 865 369 q 831 551 865 506 q 747 595 796 595 q 631 548 685 595 q 557 425 578 500 l 557 0 l 468 0 l 468 271 q 389 212 435 233 q 288 190 342 190 q 121 258 190 190 q 53 425 53 327 q 132 610 53 533 q 323 686 212 686 q 379 682 355 686 q 414 669 403 677 l 396 578 q 361 591 380 587 q 323 595 343 595 q 196 545 250 595 q 142 425 142 495 q 185 322 142 365 q 288 279 228 279 q 388 311 339 279 q 468 397 437 343 l 468 822 l -18 822 z "},"ख़":{"ha":1134,"x_min":-18,"x_max":1138,"o":"m 141 -18 l 60 54 l 141 126 l 222 54 l 141 -18 m 551 81 q 745 139 652 81 q 894 298 837 197 l 894 370 q 821 323 859 339 q 750 307 784 307 q 596 363 659 307 q 533 500 533 420 q 596 639 533 582 q 750 696 659 696 q 814 688 784 696 q 867 669 844 681 l 867 578 q 802 597 831 590 q 750 605 772 605 q 660 574 697 605 q 623 500 623 544 q 660 427 623 457 q 750 397 697 397 q 816 416 779 397 q 894 469 853 435 l 894 822 l 397 822 l 397 623 q 349 475 397 536 q 235 415 301 415 q 210 418 222 415 q 190 425 198 420 q 345 175 245 269 q 551 81 445 81 m -18 822 l -18 903 l 1138 903 l 1138 822 l 985 822 l 985 0 l 894 0 l 894 180 q 743 48 834 96 q 551 0 652 0 q 250 166 393 0 q 37 595 107 332 l 109 632 q 163 540 129 574 q 235 506 198 506 q 286 540 266 506 q 307 623 307 574 l 307 822 l -18 822 z "},"ग़":{"ha":701,"x_min":-18,"x_max":720,"o":"m 179 -18 l 107 54 l 179 126 l 251 54 l 179 -18 m -18 822 l -18 903 l 720 903 l 720 822 l 567 822 l 567 0 l 477 0 l 477 822 l 251 822 l 251 380 q 237 342 251 358 q 206 326 224 326 q 99 410 172 326 q 26 533 26 495 q 37 557 26 547 q 61 568 47 568 l 125 568 q 151 582 140 568 q 161 614 161 595 l 161 822 l -18 822 z "},"ज़":{"ha":994,"x_min":-18,"x_max":1006,"o":"m 245 -18 l 164 54 l 245 126 l 327 54 l 245 -18 m 419 109 q 216 239 321 109 q 31 587 110 370 l 113 623 q 266 314 182 430 q 419 198 350 198 q 496 233 464 198 q 528 316 528 267 q 488 475 528 393 q 374 632 448 557 l 762 632 l 762 822 l -18 822 l -18 903 l 1006 903 l 1006 822 l 853 822 l 853 0 l 762 0 l 762 541 l 545 541 q 600 433 582 491 q 617 316 617 376 q 559 169 617 229 q 419 109 502 109 z "},"ड़":{"ha":857,"x_min":-18,"x_max":873,"o":"m 522 -180 l 441 -118 l 522 -54 l 604 -118 l 522 -180 m 522 18 q 245 125 380 18 q 26 415 110 233 l 98 461 q 288 204 174 300 q 522 109 403 109 q 649 164 595 109 q 703 298 703 220 q 689 336 703 320 q 658 353 675 353 q 576 334 628 353 q 495 316 524 316 q 343 403 426 316 q 260 560 260 490 q 294 643 260 609 q 377 677 328 677 l 621 677 l 621 822 l -18 822 l -18 903 l 873 903 l 873 822 l 712 822 l 712 587 l 377 587 q 358 579 366 587 q 350 560 350 571 q 404 465 350 522 q 495 407 458 407 q 576 425 524 407 q 658 442 628 442 q 753 400 713 442 q 793 298 793 358 q 713 100 793 182 q 522 18 633 18 z "},"ढ़":{"ha":776,"x_min":-18,"x_max":804,"o":"m 435 -180 l 354 -118 l 435 -54 l 517 -118 l 435 -180 m 536 109 q 614 155 583 118 q 644 244 644 193 q 618 308 644 282 q 555 334 593 334 q 497 311 521 334 q 473 252 473 288 q 490 172 473 209 q 536 109 506 134 m -18 822 l -18 903 l 804 903 l 804 822 l 617 822 l 617 551 l 266 551 q 182 509 217 551 q 148 407 148 467 q 242 205 148 301 q 446 99 336 109 q 399 165 415 125 q 382 252 382 206 q 433 374 382 323 q 555 425 484 425 q 682 371 628 425 q 735 244 735 317 q 650 84 735 151 q 446 18 566 18 q 180 140 301 18 q 58 407 58 262 q 119 573 58 505 q 266 642 179 642 l 528 642 l 528 822 l -18 822 z "},"फ़":{"ha":1038,"x_min":-16,"x_max":1070,"o":"m 233 -9 l 161 58 l 233 126 l 305 58 l 233 -9 m 301 380 q 401 406 354 380 q 481 479 449 431 l 481 822 l 165 822 l 165 506 q 205 416 165 453 q 301 380 245 380 m 76 506 l 76 822 l -16 822 l -16 903 l 1070 903 l 1070 822 l 572 822 l 572 568 q 658 635 608 612 q 762 659 708 659 q 922 585 856 659 q 987 407 987 511 q 957 247 987 326 q 869 99 926 168 l 789 145 q 869 264 841 197 q 897 407 897 332 q 857 521 897 473 q 762 568 818 568 q 665 541 715 568 q 572 461 616 513 l 572 0 l 481 0 l 481 361 q 401 308 448 327 q 301 289 354 289 q 142 352 208 289 q 76 506 76 415 z "},"य़":{"ha":808,"x_min":-18,"x_max":827,"o":"m 222 -9 l 151 54 l 222 126 l 294 54 l 222 -9 m 349 262 q 482 300 419 262 q 583 407 545 339 l 583 822 l 277 822 q 330 733 311 780 q 349 642 349 686 q 287 502 349 563 q 132 425 225 441 q 206 308 145 354 q 349 262 267 262 m -18 822 l -18 903 l 827 903 l 827 822 l 674 822 l 674 0 l 583 0 l 583 279 q 470 200 530 228 q 349 172 410 172 q 125 267 218 172 q 33 496 33 361 q 197 536 136 496 q 258 642 258 576 q 235 732 258 685 q 168 822 212 779 l -18 822 z "},"ॠ":{"ha":1196,"x_min":-18,"x_max":1215,"o":"m -18 822 l -18 903 l 1215 903 l 1215 822 l 675 822 l 675 496 l 829 568 q 841 644 818 610 q 901 677 864 677 q 959 656 936 677 q 982 605 982 636 q 972 555 982 576 q 947 524 963 533 l 1009 407 q 906 357 947 396 q 865 271 865 317 q 907 175 865 214 q 1009 136 949 136 q 1066 147 1034 136 q 1137 180 1099 159 l 1181 99 q 1090 66 1134 77 q 1009 54 1046 54 q 843 117 911 54 q 774 271 774 180 q 806 372 774 326 q 892 442 838 418 l 856 496 l 675 415 l 675 0 l 585 0 l 585 343 l 214 172 l 161 244 l 513 407 l 404 506 q 338 566 372 544 q 278 587 305 587 q 187 564 240 587 q 71 496 134 540 l 16 560 q 159 640 92 612 q 278 669 225 669 q 352 648 311 669 q 441 587 393 627 l 585 442 l 585 822 l -18 822 z "},"ॡ":{"ha":960,"x_min":-18,"x_max":979,"o":"m 339 0 q 136 153 213 54 q 60 361 60 251 q 125 546 60 469 q 285 623 191 623 q 389 594 339 623 q 475 515 439 566 q 540 586 502 557 q 620 623 578 614 l 620 822 l -18 822 l -18 903 l 979 903 l 979 822 l 709 822 l 709 623 q 847 517 795 598 q 899 334 899 437 q 831 146 899 228 q 655 45 762 64 q 610 24 628 39 q 593 -9 593 9 q 621 -60 593 -39 q 692 -81 650 -81 l 755 -81 l 755 -153 l 692 -153 q 621 -173 650 -153 q 593 -222 593 -193 q 621 -275 593 -252 q 692 -298 650 -298 q 781 -285 736 -298 q 864 -244 826 -271 l 899 -316 q 803 -363 856 -347 q 692 -380 750 -380 q 558 -334 614 -380 q 502 -225 502 -289 q 524 -160 502 -190 q 583 -118 547 -130 q 524 -78 547 -109 q 502 -9 502 -47 q 545 88 502 47 q 648 134 587 129 q 764 197 718 140 q 810 334 810 255 q 764 475 810 418 q 655 533 719 533 q 551 465 601 533 q 475 289 500 396 l 385 316 q 404 380 392 349 q 430 442 415 412 q 366 509 404 484 q 285 533 327 533 q 190 482 229 533 q 151 361 151 431 q 212 194 151 273 q 376 72 273 115 l 339 0 z "},"ॢ":{"ha":0,"x_min":-505,"x_max":114,"o":"m -294 -415 q -448 -303 -391 -376 q -505 -152 -505 -231 q -454 -16 -505 -72 q -334 39 -404 39 q -256 22 -293 39 q -197 -28 -220 4 q -138 22 -175 4 q -58 39 -102 39 q 63 -24 12 39 q 114 -179 114 -88 q 73 -304 114 -250 q -37 -376 31 -359 q -104 -416 -77 -387 q -130 -483 -130 -446 q -103 -543 -130 -518 q -37 -568 -76 -568 q 32 -559 0 -568 q 87 -534 64 -551 l 109 -594 q 39 -629 76 -617 q -37 -642 1 -642 q -153 -594 -104 -642 q -202 -483 -202 -547 q -163 -371 -202 -419 q -61 -312 -123 -323 q 13 -267 -16 -305 q 42 -179 42 -229 q 13 -75 42 -118 q -58 -33 -16 -33 q -144 -83 -103 -33 q -202 -212 -184 -134 l -260 -184 q -247 -138 -255 -161 q -228 -92 -239 -114 q -273 -49 -244 -65 q -334 -33 -301 -33 q -403 -68 -374 -33 q -431 -152 -431 -103 q -387 -268 -431 -213 q -269 -354 -343 -323 l -294 -415 z "},"ॣ":{"ha":0,"x_min":-505,"x_max":121,"o":"m -294 -415 q -448 -303 -391 -376 q -505 -152 -505 -231 q -454 -13 -505 -71 q -334 45 -404 45 q -252 25 -290 45 q -191 -28 -214 5 q -136 25 -170 5 q -64 45 -102 45 q 66 -16 12 45 q 121 -163 121 -76 q 71 -307 121 -244 q -56 -381 22 -369 q -90 -397 -76 -385 q -103 -425 -103 -410 q -83 -460 -103 -446 q -37 -475 -64 -475 l 7 -475 l 7 -528 l -37 -528 q -83 -544 -64 -528 q -103 -582 -103 -560 q -83 -613 -103 -600 q -37 -627 -64 -627 q 37 -618 4 -627 q 96 -590 71 -609 l 121 -655 q 51 -688 91 -677 q -37 -699 11 -699 q -134 -665 -94 -699 q -175 -582 -175 -631 q -161 -533 -175 -555 q -121 -502 -146 -511 q -160 -473 -145 -495 q -175 -425 -175 -452 q -144 -351 -175 -382 q -69 -316 -114 -320 q 16 -268 -18 -312 q 49 -163 49 -224 q 16 -67 49 -107 q -64 -27 -16 -27 q -140 -77 -103 -27 q -195 -203 -176 -126 l -260 -184 q -247 -138 -255 -161 q -228 -92 -239 -114 q -275 -44 -245 -61 q -334 -27 -304 -27 q -403 -63 -374 -27 q -431 -152 -431 -99 q -387 -268 -431 -213 q -267 -355 -342 -323 l -294 -415 z "},"।":{"ha":496,"x_min":271,"x_max":361,"o":"m 271 0 l 271 903 l 361 903 l 361 0 l 271 0 z "},"॥":{"ha":785,"x_min":271,"x_max":650,"o":"m 560 0 l 560 903 l 650 903 l 650 0 l 560 0 m 271 0 l 271 903 l 361 903 l 361 0 l 271 0 z "},"०":{"ha":902,"x_min":136,"x_max":768,"o":"m 292 292 q 325 258 292 292 q 452 225 358 225 q 611 292 545 225 q 677 452 677 358 q 611 611 677 545 q 452 677 545 677 q 292 611 358 677 q 225 452 225 545 q 292 292 225 358 m 675 229 q 628 182 675 229 q 452 136 582 136 q 229 229 321 136 q 136 452 136 321 q 229 675 136 582 q 452 768 321 768 q 675 675 582 768 q 768 452 768 582 q 675 229 768 321 z "},"१":{"ha":902,"x_min":208,"x_max":696,"o":"m 442 541 q 551 589 506 541 q 595 704 595 637 q 551 825 595 774 q 442 876 506 876 q 340 825 382 876 q 298 704 298 774 q 340 589 298 637 q 442 541 382 541 m 605 -45 l 605 524 q 532 477 574 494 q 442 461 490 461 q 276 532 345 461 q 208 704 208 604 q 276 877 208 806 q 442 948 345 948 q 627 874 557 948 q 696 677 696 800 l 696 -45 l 605 -45 z "},"२":{"ha":902,"x_min":153,"x_max":750,"o":"m 650 -64 l 415 252 q 391 247 407 250 q 353 244 374 244 q 256 275 296 244 q 217 353 217 307 q 243 404 217 382 q 307 425 269 425 q 380 406 342 425 q 452 353 418 387 q 602 466 545 387 q 659 642 659 545 q 599 801 659 735 q 452 867 538 867 q 328 842 391 867 q 208 768 266 817 l 153 840 q 299 926 222 895 q 452 958 376 958 q 662 865 574 958 q 750 642 750 772 q 683 425 750 522 q 506 289 616 328 l 723 -9 l 650 -64 z "},"३":{"ha":901,"x_min":184,"x_max":718,"o":"m 536 -198 q 457 -119 499 -176 q 374 27 415 -61 q 259 67 307 27 q 212 163 212 107 q 235 214 212 193 q 293 235 258 235 q 368 203 328 235 q 437 118 407 172 q 574 185 521 132 q 627 307 627 239 q 564 435 627 381 q 410 488 500 488 l 311 488 l 266 568 l 429 568 q 543 611 495 568 q 590 713 590 654 q 540 809 590 769 q 419 849 490 849 q 332 833 380 849 q 229 785 283 817 l 184 849 q 298 916 236 892 q 429 939 361 939 q 607 873 533 939 q 681 713 681 807 q 649 606 681 658 q 563 524 617 555 q 675 433 633 491 q 718 307 718 374 q 646 139 718 213 q 464 45 574 65 q 545 -77 507 -31 q 609 -136 582 -123 l 536 -198 z "},"४":{"ha":901,"x_min":140,"x_max":762,"o":"m 456 81 q 564 124 518 81 q 609 225 609 167 q 567 331 609 279 q 456 415 525 382 q 351 340 391 392 q 311 225 311 288 q 353 124 311 167 q 456 81 396 81 m 456 0 q 289 66 358 0 q 220 225 220 132 q 263 361 220 296 q 382 469 307 426 q 205 601 271 522 q 140 758 140 680 q 161 846 140 804 q 220 921 182 888 l 293 876 q 245 814 262 845 q 229 758 229 784 q 292 625 229 690 q 456 524 354 560 q 614 645 556 582 q 671 758 671 708 q 655 817 671 784 q 609 884 639 849 l 690 930 q 743 850 724 895 q 762 758 762 806 q 702 607 762 685 q 536 469 642 529 q 655 361 612 426 q 699 225 699 296 q 627 66 699 132 q 456 0 556 0 z "},"५":{"ha":902,"x_min":136,"x_max":768,"o":"m 632 -118 l 587 -45 q 647 11 625 -18 q 669 64 669 39 q 659 122 669 85 q 632 208 650 159 l 568 415 q 501 382 538 393 q 425 370 464 370 q 220 458 305 370 q 136 669 136 545 q 154 829 136 753 q 208 966 172 905 l 289 930 q 241 809 258 876 q 225 669 225 742 q 283 515 225 578 q 425 452 342 452 q 487 460 457 452 q 541 488 517 469 q 528 546 533 507 q 524 642 524 585 q 555 743 524 701 q 632 785 587 785 q 696 743 670 785 q 723 642 723 701 q 704 562 723 604 q 650 479 685 521 l 731 208 q 759 122 750 159 q 768 64 768 85 q 732 -33 768 16 q 632 -118 696 -81 z "},"६":{"ha":902,"x_min":163,"x_max":741,"o":"m 677 -225 q 618 -127 650 -193 q 551 37 587 -61 q 315 113 412 37 q 217 298 217 190 q 248 406 217 354 q 334 488 279 457 q 212 562 260 500 q 163 704 163 623 q 231 851 163 791 q 397 911 300 911 q 514 900 461 911 q 605 867 567 888 l 578 785 q 483 813 529 804 q 397 822 437 822 q 295 787 338 822 q 252 704 252 753 q 300 589 252 637 q 415 541 349 541 l 560 541 l 595 469 l 496 469 q 363 419 419 469 q 307 298 307 369 q 376 171 307 224 q 541 118 445 118 q 576 219 541 176 q 659 262 610 262 q 704 238 685 262 q 723 180 723 214 q 701 109 723 145 q 642 45 680 72 q 675 -40 650 12 q 741 -163 701 -92 l 677 -225 z "},"७":{"ha":902,"x_min":118,"x_max":785,"o":"m 677 326 q 691 419 686 376 q 696 496 696 463 q 661 669 696 598 q 578 741 627 741 q 501 687 533 741 q 469 560 469 633 q 530 394 469 463 q 677 326 590 326 m 461 0 q 218 140 317 0 q 118 479 118 279 q 124 605 118 524 q 145 859 130 686 l 244 911 q 216 701 225 810 q 208 479 208 593 q 281 198 208 315 q 461 81 355 81 q 576 131 521 81 q 659 262 631 180 q 467 349 547 262 q 388 560 388 437 q 444 745 388 669 q 578 822 500 822 q 725 727 665 822 q 785 496 785 632 q 697 136 785 271 q 461 0 609 0 z "},"८":{"ha":902,"x_min":136,"x_max":768,"o":"m 469 0 q 233 85 331 0 q 136 289 136 170 q 156 389 136 339 q 217 479 176 439 l 642 921 l 704 859 l 289 425 q 249 362 263 397 q 235 289 235 327 q 303 142 235 202 q 469 81 372 81 q 585 119 524 81 q 704 225 647 157 l 768 163 q 625 43 703 85 q 469 0 547 0 z "},"९":{"ha":901,"x_min":157,"x_max":745,"o":"m 410 551 q 512 602 469 551 q 555 723 555 652 q 512 837 555 789 q 410 884 469 884 q 295 837 343 884 q 247 723 247 789 q 295 602 247 652 q 410 551 343 551 m 563 -126 l 536 -45 q 619 -26 585 -45 q 654 18 654 -7 q 638 55 654 33 q 590 118 623 77 l 311 425 q 197 581 236 499 q 157 741 157 663 q 231 913 157 842 q 410 985 305 985 q 583 908 511 985 q 654 723 654 831 q 593 543 654 617 q 446 469 533 469 q 426 471 439 469 q 382 479 412 473 l 690 136 q 731 74 718 104 q 745 18 745 43 q 692 -78 745 -37 q 563 -126 639 -119 z "},"॰":{"ha":739,"x_min":136,"x_max":605,"o":"m 372 517 q 478 562 434 517 q 522 673 522 608 q 478 783 522 738 q 372 827 434 827 q 267 783 311 827 q 222 673 222 738 q 267 562 222 608 q 372 517 311 517 m 536 509 q 502 475 536 509 q 370 441 468 441 q 204 509 273 441 q 136 673 136 576 q 204 836 136 768 q 370 903 273 903 q 536 836 468 903 q 605 673 605 768 q 536 509 605 576 z "},"ॱ":{"ha":244,"x_min":54,"x_max":190,"o":"m 54 798 l 54 924 l 190 924 l 190 798 l 54 798 z "},"ॲ":{"ha":1042,"x_min":31,"x_max":1072,"o":"m 800 1029 q 625 1099 701 1029 q 530 1274 548 1168 l 620 1274 q 685 1152 633 1200 q 800 1103 736 1103 q 917 1152 865 1103 q 982 1274 968 1200 l 1072 1274 q 977 1099 1054 1168 q 800 1029 901 1029 m 419 64 q 209 154 311 64 q 31 407 107 244 l 98 445 q 247 230 163 307 q 419 153 331 153 q 515 195 475 153 q 555 296 555 236 q 509 419 555 369 q 401 469 464 469 q 359 465 381 469 q 311 452 336 461 l 274 533 q 418 589 355 540 q 480 696 480 639 q 449 785 480 747 q 374 822 418 822 q 264 789 321 822 q 157 696 208 755 l 94 758 q 215 865 141 827 q 374 903 289 903 q 515 843 457 903 q 572 696 572 783 q 551 608 572 650 q 491 533 529 566 q 613 473 560 494 q 699 452 666 452 q 749 463 719 452 q 817 496 779 475 l 817 822 l 654 822 l 654 903 l 1061 903 l 1061 822 l 906 822 l 906 0 l 817 0 l 817 407 q 772 379 795 388 q 726 370 750 370 q 657 378 688 370 q 609 397 627 385 q 635 357 627 382 q 644 298 644 331 q 578 132 644 201 q 419 64 513 64 z "},"ॳ":{"ha":1042,"x_min":31,"x_max":1061,"o":"m 906 1112 l 906 903 l 1061 903 l 1061 822 l 906 822 l 906 0 l 817 0 l 817 407 q 772 379 795 388 q 726 370 750 370 q 657 378 688 370 q 609 397 627 385 q 635 357 627 382 q 644 298 644 331 q 578 132 644 201 q 419 64 513 64 q 209 154 311 64 q 31 407 107 244 l 98 445 q 247 230 163 307 q 419 153 331 153 q 515 195 475 153 q 555 296 555 236 q 509 419 555 369 q 401 469 464 469 q 359 465 381 469 q 311 452 336 461 l 274 533 q 418 589 355 540 q 480 696 480 639 q 449 785 480 747 q 374 822 418 822 q 264 789 321 822 q 157 696 208 755 l 94 758 q 215 865 141 827 q 374 903 289 903 q 515 843 457 903 q 572 696 572 783 q 551 608 572 650 q 491 533 529 566 q 613 473 560 494 q 699 452 666 452 q 749 463 719 452 q 817 496 779 475 l 817 822 l 654 822 l 654 903 l 817 903 l 817 1112 l 906 1112 z "},"ॴ":{"ha":1413,"x_min":33,"x_max":1432,"o":"m 1271 1112 l 1272 903 l 1432 903 l 1432 822 l 1279 822 l 1279 0 l 1188 0 l 1188 822 l 909 822 l 909 0 l 818 0 l 818 407 q 774 379 796 388 q 728 370 751 370 q 659 378 690 370 q 610 397 628 385 q 637 357 628 382 q 647 298 647 331 q 581 132 647 201 q 420 64 515 64 q 210 154 312 64 q 33 407 109 244 l 96 461 q 249 234 164 315 q 420 153 334 153 q 517 196 477 153 q 556 298 556 239 q 511 419 556 369 q 403 469 467 469 q 360 465 382 469 q 312 452 338 461 l 277 533 q 421 592 358 540 q 484 704 484 644 q 447 787 484 753 q 358 822 410 822 q 262 789 315 822 q 159 696 209 755 l 96 758 q 216 871 146 831 q 358 911 285 911 q 511 851 448 911 q 574 704 574 791 q 552 610 574 655 q 494 533 530 566 q 616 473 562 494 q 709 452 671 452 q 760 463 731 452 q 818 496 788 475 l 818 822 l 655 822 l 655 903 l 1181 903 l 1181 1112 l 1271 1112 z "},"ॵ":{"ha":1413,"x_min":33,"x_max":1432,"o":"m 420 64 q 210 154 312 64 q 33 407 109 244 l 96 461 q 249 234 164 315 q 420 153 334 153 q 517 196 477 153 q 556 298 556 239 q 511 419 556 369 q 403 469 467 469 q 360 465 382 469 q 312 452 338 461 l 277 533 q 421 589 358 540 q 484 696 484 639 q 441 785 484 747 q 339 822 399 822 q 252 791 298 822 q 168 704 206 761 l 96 758 q 212 871 146 831 q 339 911 277 911 q 505 848 437 911 q 574 696 574 785 q 552 608 574 650 q 494 533 530 566 q 619 473 562 494 q 719 452 677 452 q 754 463 731 452 q 818 496 777 473 l 818 822 l 655 822 l 655 903 l 1145 903 q 1096 960 1127 936 q 962 998 1035 1009 q 783 1025 863 983 q 670 1171 704 1066 l 760 1183 q 834 1085 783 1111 q 951 1069 886 1059 q 1127 1017 1062 1085 q 1194 903 1172 970 l 1242 903 q 1218 996 1242 951 q 1108 1081 1181 1063 q 956 1176 1013 1107 q 907 1354 898 1245 l 994 1331 q 1025 1211 987 1255 q 1127 1152 1063 1168 q 1270 1035 1236 1123 q 1287 903 1293 974 l 1432 903 l 1432 822 l 1279 822 l 1279 0 l 1188 0 l 1188 822 l 909 822 l 909 0 l 818 0 l 818 407 q 774 379 796 388 q 728 370 751 370 q 659 378 690 370 q 610 397 628 385 q 637 357 628 382 q 647 298 647 331 q 581 132 647 201 q 420 64 515 64 z "},"ॶ":{"ha":1042,"x_min":31,"x_max":1061,"o":"m 575 -277 q 388 -209 475 -282 q 286 -72 301 -136 l 385 -72 q 453 -151 385 -90 q 575 -193 495 -191 q 699 -146 643 -193 q 765 -72 743 -111 l 864 -72 q 764 -209 849 -133 q 575 -277 688 -274 m 419 64 q 209 154 311 64 q 31 407 107 244 l 98 445 q 247 230 163 307 q 419 153 331 153 q 515 195 475 153 q 555 296 555 236 q 509 419 555 369 q 401 469 464 469 q 359 465 381 469 q 311 452 336 461 l 274 533 q 418 589 355 540 q 480 696 480 639 q 449 785 480 747 q 374 822 418 822 q 264 789 321 822 q 157 696 208 755 l 94 758 q 215 865 141 827 q 374 903 289 903 q 515 843 457 903 q 572 696 572 783 q 551 608 572 650 q 491 533 529 566 q 613 473 560 494 q 699 452 666 452 q 749 463 719 452 q 817 496 779 475 l 817 822 l 654 822 l 654 903 l 1061 903 l 1061 822 l 906 822 l 906 0 l 817 0 l 817 407 q 772 379 795 388 q 726 370 750 370 q 657 378 688 370 q 609 397 627 385 q 635 357 627 382 q 644 298 644 331 q 578 132 644 201 q 419 64 513 64 z "},"ॷ":{"ha":1042,"x_min":31,"x_max":1061,"o":"m 384 -206 q 282 -68 297 -133 l 381 -68 q 449 -146 381 -87 q 571 -189 491 -187 q 694 -144 639 -189 q 761 -68 739 -106 l 860 -68 q 760 -206 845 -130 q 571 -273 684 -271 q 384 -206 471 -278 m 387 -387 q 286 -252 301 -324 l 381 -252 q 452 -331 400 -304 q 571 -369 526 -368 q 694 -323 639 -369 q 761 -248 739 -288 l 860 -248 q 760 -382 846 -308 q 571 -450 684 -448 q 387 -387 469 -446 m 419 64 q 209 154 311 64 q 31 407 107 244 l 98 445 q 247 230 163 307 q 419 153 331 153 q 515 195 475 153 q 555 296 555 236 q 509 419 555 369 q 401 469 464 469 q 359 465 381 469 q 311 452 336 461 l 274 533 q 418 589 355 540 q 480 696 480 639 q 449 785 480 747 q 374 822 418 822 q 264 789 321 822 q 157 696 208 755 l 94 758 q 215 865 141 827 q 374 903 289 903 q 515 843 457 903 q 572 696 572 783 q 551 608 572 650 q 491 533 529 566 q 613 473 560 494 q 699 452 666 452 q 749 463 719 452 q 817 496 779 475 l 817 822 l 654 822 l 654 903 l 1061 903 l 1061 822 l 906 822 l 906 0 l 817 0 l 817 407 q 772 379 795 388 q 726 370 750 370 q 657 378 688 370 q 609 397 627 385 q 635 357 627 382 q 644 298 644 331 q 578 132 644 201 q 419 64 513 64 z "},"ॹ":{"ha":987,"x_min":-18,"x_max":1006,"o":"m 408 -256 l 336 -186 l 408 -113 l 480 -186 l 408 -256 m 575 -94 l 503 -23 l 575 50 l 647 -23 l 575 -94 m 236 -94 l 164 -23 l 236 50 l 308 -23 l 236 -94 m 419 109 q 216 239 321 109 q 31 587 110 370 l 113 623 q 266 314 182 430 q 419 198 350 198 q 496 233 464 198 q 528 316 528 267 q 488 475 528 393 q 374 632 448 557 l 762 632 l 762 822 l -18 822 l -18 903 l 1006 903 l 1006 822 l 853 822 l 853 0 l 762 0 l 762 541 l 545 541 q 600 433 582 491 q 617 316 617 376 q 559 169 617 229 q 419 109 502 109 z "},"ॺ":{"ha":808,"x_min":-18,"x_max":827,"o":"m 548 355 l 338 578 q 288 502 323 537 q 132 425 225 441 q 206 308 145 354 q 349 262 267 262 q 483 301 419 262 q 548 355 519 323 m 583 418 l 583 822 l 277 822 q 330 732 311 780 q 347 671 342 701 l 583 418 m -18 822 l -18 903 l 827 903 l 827 822 l 674 822 l 674 0 l 583 0 l 583 279 q 470 200 530 228 q 349 172 410 172 q 125 267 218 172 q 33 496 33 361 q 197 536 136 496 q 258 642 258 576 q 235 732 258 685 q 168 822 212 779 l -18 822 z "},"ॻ":{"ha":701,"x_min":-19,"x_max":720,"o":"m -18 822 l -18 903 l 720 903 l 720 822 l 567 822 l 567 0 l 567 -81 l -19 -81 l -19 0 l 477 0 l 477 822 l 251 822 l 251 380 q 237 342 251 358 q 206 326 224 326 q 99 410 172 326 q 26 533 26 495 q 37 557 26 547 q 61 568 47 568 l 125 568 q 151 582 140 568 q 161 614 161 595 l 161 822 l -18 822 z "},"ॼ":{"ha":987,"x_min":-18,"x_max":1006,"o":"m -3 -83 l -3 -1 l 850 -1 l 850 -83 l -3 -83 m 419 109 q 216 239 321 109 q 31 587 110 370 l 113 623 q 266 314 182 430 q 419 198 350 198 q 496 233 464 198 q 528 316 528 267 q 488 475 528 393 q 374 632 448 557 l 762 632 l 762 822 l -18 822 l -18 903 l 1006 903 l 1006 822 l 853 822 l 853 0 l 762 0 l 762 541 l 545 541 q 600 433 582 491 q 617 316 617 376 q 559 169 617 229 q 419 109 502 109 z "},"ॽ":{"ha":856,"x_min":141,"x_max":715,"o":"m 385 346 l 385 0 l 296 0 l 296 437 q 510 460 458 433 q 623 640 625 521 q 418 812 620 796 q 212 728 297 822 l 141 787 q 256 871 167 826 q 514 887 361 924 q 715 652 708 840 q 632 422 720 515 q 385 346 562 350 z "},"ॾ":{"ha":972,"x_min":23,"x_max":914,"o":"m 30 -81 l 30 0 l 906 0 l 906 -81 l 30 -81 m 563 18 q 286 125 420 18 q 66 415 151 233 l 138 461 q 329 204 214 300 q 563 109 444 109 q 690 164 636 109 q 743 298 743 220 q 730 336 743 320 q 699 353 716 353 q 616 334 669 353 q 536 316 564 316 q 384 403 467 316 q 301 560 301 490 q 335 643 301 609 q 418 677 369 677 l 662 677 l 662 822 l 23 822 l 23 903 l 914 903 l 914 822 l 753 822 l 753 587 l 418 587 q 399 579 407 587 q 391 560 391 571 q 445 465 391 522 q 536 407 499 407 q 616 425 564 407 q 699 442 669 442 q 794 400 754 442 q 834 298 834 358 q 754 100 834 182 q 563 18 674 18 z "},"ॿ":{"ha":728,"x_min":-20,"x_max":747,"o":"m 305 289 q 365 298 338 289 q 414 326 392 307 l 170 524 q 150 485 157 507 q 142 434 142 463 q 191 332 142 374 q 305 289 239 289 m 53 434 q 132 618 53 541 q 323 696 212 696 q 388 688 358 696 q 441 669 418 681 l 414 595 q 371 610 393 605 q 323 614 349 614 q 256 604 283 614 q 214 578 228 594 l 477 380 l 505 415 l 505 822 l -18 822 l -18 903 l 747 903 l 747 822 l 594 822 l 594 0 l 594 -81 l -20 -81 l -20 0 l 505 0 l 505 289 q 410 222 461 245 q 305 198 358 198 q 127 267 201 198 q 53 434 53 336 z "},"‌":{"ha":0,"x_min":0,"x_max":72,"o":"m 0 -442 l 0 1355 l 72 1355 l 72 -442 l 0 -442 z "},"‍":{"ha":0,"x_min":0,"x_max":307,"o":"m 0 -442 l 0 1355 l 307 1355 l 307 1282 l 72 1282 l 72 -442 l 0 -442 z "},"–":{"ha":902,"x_min":0,"x_max":903,"o":"m 0 380 l 0 461 l 903 461 l 903 380 l 0 380 z "},"—":{"ha":1805,"x_min":0,"x_max":1807,"o":"m 0 380 l 0 461 l 1807 461 l 1807 380 l 0 380 z "},"‘":{"ha":477,"x_min":136,"x_max":343,"o":"m 136 785 l 271 1120 l 343 1120 l 262 785 l 136 785 z "},"’":{"ha":524,"x_min":136,"x_max":388,"o":"m 136 785 l 244 1147 l 388 1147 l 217 785 l 136 785 z "},"“":{"ha":731,"x_min":136,"x_max":595,"o":"m 388 785 l 524 1120 l 595 1120 l 515 785 l 388 785 m 136 785 l 271 1120 l 343 1120 l 262 785 l 136 785 z "},"”":{"ha":776,"x_min":136,"x_max":642,"o":"m 388 785 l 496 1147 l 642 1147 l 469 785 l 388 785 m 136 785 l 244 1147 l 388 1147 l 217 785 l 136 785 z "},"…":{"ha":1408,"x_min":136,"x_max":1274,"o":"m 1074 0 l 1074 81 l 1274 81 l 1274 0 l 1074 0 m 605 0 l 605 81 l 804 81 l 804 0 l 605 0 m 136 0 l 136 81 l 334 81 l 334 0 l 136 0 z "},"₹":{"ha":826,"x_min":80,"x_max":791,"o":"m 486 678 q 487 697 487 690 l 80 697 l 115 783 l 469 783 q 449 812 461 799 q 224 887 380 887 l 80 887 l 115 972 l 791 972 l 755 887 l 498 887 q 570 783 551 856 l 791 783 l 755 697 l 582 697 q 232 461 582 487 l 688 0 l 552 0 l 95 457 l 95 537 q 486 678 469 534 z "},"−":{"ha":939,"x_min":136,"x_max":804,"o":"m 136 397 l 136 496 l 804 496 l 804 397 l 136 397 z "},"◌":{"ha":1245,"x_min":136,"x_max":1111,"o":"m 788 40 q 779 50 788 40 q 769 87 769 60 q 788 133 769 114 q 834 152 807 152 q 880 133 861 152 q 899 87 899 114 q 880 40 899 60 q 834 20 861 20 q 788 40 807 20 m 366 772 q 357 781 366 772 q 347 818 347 791 q 366 864 347 845 q 412 883 385 883 q 458 864 439 883 q 477 818 477 845 q 458 772 477 791 q 412 753 439 753 q 366 772 385 753 m 944 194 q 935 203 944 194 q 925 240 925 213 q 944 286 925 267 q 990 305 963 305 q 1036 286 1017 305 q 1055 240 1055 267 q 1036 194 1055 213 q 990 175 1017 175 q 944 194 963 175 m 212 617 q 202 627 212 617 q 193 663 193 636 q 212 709 193 690 q 258 728 231 728 q 304 709 285 728 q 323 663 323 690 q 304 617 323 636 q 258 598 285 598 q 212 617 231 598 m 366 40 q 357 50 366 40 q 347 87 347 60 q 366 133 347 114 q 412 152 385 152 q 458 133 439 152 q 477 87 477 114 q 458 40 477 60 q 412 20 439 20 q 366 40 385 20 m 788 772 q 779 781 788 772 q 769 818 769 791 q 788 864 769 845 q 834 883 807 883 q 880 864 861 883 q 899 818 899 845 q 880 772 899 791 q 834 753 861 753 q 788 772 807 753 m 944 617 q 935 627 944 617 q 925 663 925 636 q 944 709 925 690 q 990 728 963 728 q 1036 709 1017 728 q 1055 663 1055 690 q 1036 617 1055 636 q 990 598 1017 598 q 944 617 963 598 m 212 194 q 202 203 212 194 q 193 240 193 213 q 212 286 193 267 q 258 305 231 305 q 304 286 285 305 q 323 240 323 267 q 304 194 323 213 q 258 175 285 175 q 212 194 231 175 m 1000 406 q 990 415 1000 406 q 981 452 981 425 q 1000 498 981 479 q 1046 517 1019 517 q 1092 498 1073 517 q 1111 452 1111 479 q 1092 406 1111 425 q 1046 387 1073 387 q 1000 406 1019 387 m 155 406 q 145 415 155 406 q 136 452 136 425 q 155 498 136 479 q 201 517 174 517 q 247 498 228 517 q 266 452 266 479 q 247 406 266 425 q 201 387 228 387 q 155 406 174 387 m 576 -18 q 567 -8 576 -18 q 557 28 557 1 q 576 75 557 56 q 623 94 595 94 q 669 75 650 94 q 688 28 688 56 q 669 -18 688 1 q 623 -37 650 -37 q 576 -18 595 -37 m 557 873 q 576 920 557 901 q 623 939 595 939 q 669 920 650 939 q 688 873 688 901 q 669 829 688 848 q 623 810 650 810 q 576 829 595 810 q 557 873 557 848 z "},"꣠":{"ha":0,"x_min":-330,"x_max":-15,"o":"m -171 1109 q -106 1137 -133 1109 q -79 1205 -79 1165 q -106 1273 -79 1245 q -171 1301 -133 1301 q -236 1273 -209 1301 q -263 1205 -263 1245 q -236 1137 -263 1165 q -171 1109 -209 1109 m -61 1095 q -84 1073 -61 1095 q -172 1050 -107 1050 q -283 1095 -237 1050 q -330 1206 -330 1141 q -283 1314 -330 1268 q -172 1359 -237 1359 q -61 1314 -107 1359 q -15 1206 -15 1268 q -61 1095 -15 1141 z "},"꣡":{"ha":0,"x_min":-347,"x_max":-62,"o":"m -210 1237 q -152 1259 -176 1237 q -129 1306 -129 1278 q -153 1356 -129 1335 q -210 1378 -176 1378 q -264 1357 -241 1378 q -286 1306 -286 1336 q -264 1257 -286 1278 q -210 1237 -241 1237 m -103 1386 q -62 1294 -62 1356 l -62 989 l -123 989 l -123 1215 q -159 1199 -140 1204 q -210 1191 -183 1191 q -307 1225 -267 1191 q -347 1306 -347 1259 q -307 1388 -347 1354 q -210 1420 -267 1420 q -103 1386 -144 1420 z "},"꣢":{"ha":0,"x_min":-395,"x_max":-52,"o":"m -114 945 l -244 1086 q -255 1084 -250 1085 q -277 1082 -264 1082 q -332 1097 -309 1082 q -357 1135 -357 1112 q -340 1162 -357 1152 q -302 1173 -324 1173 q -259 1164 -282 1173 q -221 1141 -240 1156 q -142 1190 -172 1157 q -113 1264 -113 1223 q -144 1331 -113 1302 q -222 1358 -176 1358 q -289 1347 -255 1358 q -354 1316 -323 1336 l -357 1313 l -395 1352 l -389 1355 q -307 1394 -350 1381 q -222 1408 -264 1408 q -103 1366 -152 1408 q -52 1264 -52 1324 q -91 1165 -52 1208 q -183 1105 -126 1124 l -64 975 l -114 945 z "},"꣣":{"ha":0,"x_min":-350,"x_max":-43,"o":"m -151 947 q -195 979 -171 956 q -240 1036 -217 1002 q -304 1053 -278 1038 q -332 1096 -332 1070 q -317 1120 -332 1109 q -283 1128 -304 1128 q -239 1116 -262 1128 q -201 1082 -217 1104 q -130 1109 -157 1089 q -103 1153 -103 1128 q -136 1199 -103 1180 q -218 1219 -170 1219 l -275 1219 l -308 1261 l -208 1261 q -146 1278 -172 1261 q -123 1314 -123 1293 q -148 1348 -123 1333 q -213 1363 -175 1363 q -260 1357 -233 1363 q -316 1339 -286 1351 l -319 1337 l -350 1369 l -345 1373 q -281 1400 -316 1390 q -208 1409 -245 1409 q -106 1382 -148 1409 q -62 1314 -62 1354 q -81 1268 -62 1290 q -119 1240 -96 1252 q -68 1206 -88 1226 q -43 1153 -43 1181 q -84 1082 -43 1112 q -179 1044 -122 1054 q -140 1004 -157 1020 q -106 982 -121 986 l -96 978 l -148 947 l -151 947 z "},"꣤":{"ha":0,"x_min":-353,"x_max":3,"o":"m -172 1028 q -115 1046 -140 1028 q -92 1086 -92 1063 q -114 1130 -92 1108 q -172 1165 -136 1152 q -227 1134 -206 1156 q -248 1086 -248 1112 q -227 1046 -248 1063 q -172 1028 -203 1028 m -172 982 q -267 1012 -228 982 q -308 1086 -308 1043 q -283 1150 -308 1119 q -225 1194 -262 1176 q -315 1249 -281 1218 q -353 1322 -353 1286 q -340 1364 -353 1344 q -307 1398 -328 1383 l -304 1401 l -254 1375 l -259 1371 q -285 1344 -277 1358 q -293 1322 -293 1332 q -260 1267 -293 1295 q -172 1223 -228 1240 q -88 1276 -119 1249 q -58 1322 -58 1302 q -66 1345 -58 1333 q -91 1375 -75 1359 l -96 1379 l -42 1405 l -39 1402 q -9 1366 -20 1386 q 3 1322 3 1345 q -33 1252 3 1289 q -117 1195 -64 1221 q -58 1150 -80 1176 q -33 1086 -33 1119 q -75 1012 -33 1043 q -172 982 -115 982 z "},"꣥":{"ha":0,"x_min":-370,"x_max":-12,"o":"m -33 1105 q -18 1070 -22 1085 q -12 1046 -12 1055 q -34 1004 -12 1025 q -90 970 -54 985 l -94 968 l -125 1005 l -119 1008 q -87 1028 -99 1017 q -76 1046 -76 1039 q -81 1067 -76 1054 q -96 1101 -87 1082 l -129 1179 q -163 1168 -145 1172 q -206 1162 -184 1162 q -321 1199 -274 1162 q -370 1286 -370 1234 q -360 1352 -370 1321 q -330 1408 -350 1382 l -328 1411 l -273 1393 l -277 1388 q -302 1340 -294 1366 q -311 1286 -311 1314 q -281 1229 -311 1253 q -206 1204 -250 1204 q -172 1208 -189 1204 q -149 1217 -160 1211 q -153 1237 -152 1225 q -156 1275 -156 1252 q -137 1319 -156 1301 q -92 1337 -118 1337 q -53 1320 -69 1337 q -37 1275 -37 1301 q -47 1241 -37 1259 q -76 1210 -58 1226 l -33 1105 z "},"꣦":{"ha":0,"x_min":-362,"x_max":-28,"o":"m -75 948 q -107 987 -90 962 q -144 1050 -125 1013 q -275 1081 -221 1051 q -332 1157 -332 1112 q -313 1202 -332 1181 q -278 1229 -300 1218 q -332 1256 -311 1237 q -362 1316 -362 1282 q -321 1378 -362 1352 q -227 1402 -282 1402 q -161 1398 -191 1402 q -110 1383 -132 1393 l -104 1382 l -123 1341 l -127 1343 q -180 1353 -155 1350 q -227 1356 -205 1356 q -281 1344 -258 1356 q -302 1316 -302 1332 q -278 1275 -302 1293 q -217 1257 -252 1257 l -133 1257 l -107 1219 l -171 1219 q -243 1200 -213 1219 q -271 1157 -271 1181 q -236 1112 -271 1131 q -152 1092 -201 1093 q -130 1130 -149 1114 q -81 1147 -110 1147 q -53 1138 -65 1147 q -41 1112 -41 1127 q -54 1080 -41 1096 q -84 1055 -65 1066 q -68 1028 -80 1044 q -33 981 -54 1008 l -28 975 l -72 947 l -75 948 z "},"꣧":{"ha":0,"x_min":-363,"x_max":18,"o":"m -52 1134 q -45 1171 -47 1154 q -42 1204 -42 1190 q -61 1279 -42 1249 q -103 1309 -79 1309 q -141 1287 -125 1309 q -159 1233 -159 1264 q -126 1162 -159 1192 q -52 1134 -96 1135 m -168 979 q -307 1043 -250 979 q -363 1198 -363 1107 q -360 1253 -363 1217 q -349 1367 -357 1290 l -349 1370 l -281 1398 l -283 1389 q -299 1296 -294 1344 q -304 1198 -304 1248 q -264 1076 -304 1126 q -168 1025 -224 1025 q -107 1046 -136 1025 q -65 1096 -80 1065 q -168 1135 -125 1099 q -213 1233 -213 1176 q -180 1319 -213 1283 q -103 1355 -148 1355 q -16 1310 -52 1355 q 18 1204 18 1267 q -33 1042 18 1103 q -168 979 -83 979 z "},"꣨":{"ha":0,"x_min":-361,"x_max":4,"o":"m -170 981 q -304 1020 -248 981 q -361 1115 -361 1059 q -349 1161 -361 1138 q -313 1203 -336 1184 l -75 1401 l -31 1367 l -267 1171 q -288 1145 -281 1160 q -296 1115 -296 1130 q -259 1053 -296 1078 q -170 1027 -222 1027 q -107 1043 -141 1027 q -43 1089 -75 1061 l -39 1093 l 4 1059 l 0 1055 q -82 1000 -38 1020 q -170 981 -126 981 z "},"꣩":{"ha":0,"x_min":-363,"x_max":-28,"o":"m -218 1232 q -165 1251 -187 1232 q -144 1295 -144 1270 q -165 1337 -144 1320 q -218 1355 -187 1355 q -279 1337 -254 1355 q -304 1295 -304 1320 q -279 1252 -304 1270 q -218 1232 -254 1232 m -122 1051 l -277 1173 q -340 1237 -319 1203 q -363 1303 -363 1271 q -320 1375 -363 1345 q -218 1405 -278 1405 q -119 1374 -160 1405 q -79 1295 -79 1341 q -114 1221 -79 1252 q -198 1190 -148 1190 q -210 1191 -202 1190 q -217 1191 -213 1191 l -60 1066 q -37 1039 -45 1053 q -28 1015 -28 1027 q -60 972 -28 990 q -133 952 -91 955 l -137 952 l -156 994 l -149 994 q -104 1002 -122 994 q -88 1015 -88 1008 q -96 1025 -88 1019 q -122 1051 -104 1035 z "},"꣪":{"ha":0,"x_min":-514,"x_max":71,"o":"m -292 1017 q -411 1058 -354 1017 q -511 1173 -469 1099 l -514 1177 l -468 1199 l -465 1195 q -384 1100 -430 1134 q -292 1067 -339 1067 q -241 1085 -262 1067 q -221 1126 -221 1101 q -245 1177 -221 1156 q -301 1198 -269 1198 q -324 1196 -312 1198 q -350 1191 -336 1195 l -354 1190 l -380 1236 l -373 1236 q -294 1260 -328 1240 q -263 1303 -263 1282 q -279 1339 -263 1324 q -316 1355 -294 1355 q -375 1341 -345 1355 q -434 1299 -406 1326 l -437 1297 l -480 1331 l -476 1335 q -407 1383 -449 1366 q -316 1401 -365 1401 q -235 1373 -269 1401 q -201 1303 -201 1344 q -214 1261 -201 1282 q -241 1233 -224 1245 q -182 1210 -208 1218 q -136 1200 -153 1200 q -110 1204 -126 1200 q -76 1218 -95 1210 l -76 1355 l -165 1355 l -165 1401 l 71 1401 l 71 1355 l -16 1355 l -16 989 l -76 989 l -76 1166 q -94 1158 -84 1161 q -121 1154 -107 1154 q -160 1157 -142 1154 q -168 1160 -164 1158 q -167 1154 -167 1157 q -161 1127 -161 1142 q -199 1050 -161 1081 q -292 1017 -237 1017 z "},"꣫":{"ha":0,"x_min":-473,"x_max":33,"o":"m -473 1354 l -473 1400 l 33 1400 l 33 1354 l -68 1354 q -53 1331 -58 1343 q -45 1294 -45 1313 q -58 1244 -45 1267 q -87 1215 -69 1226 q -45 1181 -61 1204 q -24 1118 -24 1154 q -66 1027 -24 1062 q -165 993 -107 993 q -319 1061 -244 993 q -446 1245 -391 1126 l -448 1251 l -397 1268 l -396 1264 q -286 1101 -349 1158 q -165 1044 -227 1044 q -109 1063 -132 1044 q -84 1116 -84 1084 q -106 1171 -84 1149 q -160 1194 -129 1194 l -263 1194 l -289 1238 l -170 1238 q -123 1256 -142 1238 q -104 1294 -104 1272 q -116 1325 -104 1310 q -146 1354 -127 1340 l -473 1354 z "},"꣬":{"ha":0,"x_min":-441,"x_max":80,"o":"m -441 1354 l -441 1400 l 80 1400 l 80 1354 l -141 1354 l -141 1263 q -103 1290 -125 1279 q -41 1303 -75 1303 q 45 1270 11 1303 q 80 1190 80 1237 q 54 1109 80 1149 q -16 1040 30 1072 l -19 1039 l -76 1069 l -68 1073 q -3 1127 -26 1096 q 20 1190 20 1158 q 3 1234 20 1215 q -41 1252 -15 1252 q -102 1232 -73 1252 q -141 1180 -130 1213 l -141 987 l -201 987 l -201 1103 q -237 1082 -217 1089 q -296 1072 -264 1072 q -392 1104 -353 1072 q -431 1181 -431 1135 q -385 1268 -431 1232 q -277 1303 -340 1303 q -244 1301 -258 1303 q -224 1294 -231 1298 l -220 1293 l -232 1242 l -237 1245 q -256 1251 -247 1249 q -277 1252 -266 1252 q -345 1232 -316 1252 q -372 1181 -372 1210 q -350 1139 -372 1157 q -296 1122 -327 1122 q -243 1135 -269 1122 q -201 1171 -217 1149 l -201 1354 l -441 1354 z "},"꣭":{"ha":0,"x_min":-425,"x_max":49,"o":"m -399 1233 q -385 1252 -399 1245 q -358 1259 -374 1259 l -98 1259 l -98 1354 l -425 1354 l -425 1400 l 49 1400 l 49 1354 l -37 1354 l -37 987 l -98 987 l -98 1208 l -239 1208 q -258 1204 -250 1208 q -263 1198 -263 1200 l -263 1157 q -273 1137 -263 1145 q -293 1128 -282 1128 q -356 1172 -313 1128 q -399 1233 -399 1215 z "},"꣮":{"ha":0,"x_min":-401,"x_max":34,"o":"m -208 1154 q -152 1169 -178 1154 q -113 1207 -126 1183 l -113 1354 l -288 1354 l -288 1214 q -264 1172 -288 1190 q -208 1154 -241 1154 m -349 1214 l -349 1354 l -401 1354 l -401 1400 l 34 1400 l 34 1354 l -52 1354 l -52 987 l -113 987 l -113 1135 q -153 1114 -132 1122 q -208 1104 -180 1104 q -307 1135 -266 1104 q -349 1214 -349 1168 z "},"꣯":{"ha":0,"x_min":-381,"x_max":-22,"o":"m -381 1354 l -381 1400 l -22 1400 l -22 1354 l -90 1354 l -90 1265 q -123 1199 -90 1226 q -201 1172 -156 1172 q -218 1175 -208 1172 q -229 1177 -222 1176 q -161 1103 -198 1138 q -62 1025 -118 1062 l -57 1021 l -94 986 l -98 989 q -244 1112 -179 1043 q -355 1259 -309 1180 l -358 1264 l -304 1289 l -301 1284 q -261 1240 -289 1256 q -201 1223 -233 1223 q -165 1236 -179 1223 q -151 1265 -151 1248 l -151 1354 l -381 1354 z "},"꣰":{"ha":0,"x_min":-461,"x_max":107,"o":"m -53 1370 q -142 1450 -90 1420 q -251 1478 -195 1478 q -317 1458 -290 1478 q -345 1411 -345 1439 q -342 1385 -345 1396 q -334 1370 -338 1375 l -53 1370 m 12 1370 l 107 1370 l 107 1328 l 30 1328 l 30 1002 l -23 1002 l -23 1111 q -60 1090 -39 1097 q -113 1081 -85 1081 q -212 1109 -171 1081 q -252 1181 -252 1139 q -212 1255 -252 1225 q -113 1283 -171 1283 q -81 1280 -96 1283 q -53 1268 -65 1276 l -47 1265 l -76 1230 l -80 1232 q -95 1240 -87 1237 q -113 1242 -103 1242 q -174 1223 -149 1242 q -198 1181 -198 1206 q -174 1142 -198 1160 q -113 1126 -149 1126 q -64 1139 -88 1126 q -23 1176 -41 1153 l -23 1328 l -331 1328 l -331 1002 l -385 1002 l -385 1328 l -461 1328 l -461 1370 l -389 1370 q -395 1382 -392 1375 q -399 1411 -399 1394 q -354 1488 -399 1457 q -251 1519 -311 1519 q -110 1480 -179 1519 q 8 1374 -41 1442 l 12 1370 z "},"꣱":{"ha":0,"x_min":-342,"x_max":-49,"o":"m -170 998 q -271 1034 -224 998 q -340 1128 -319 1070 l -342 1133 l -288 1156 l -286 1152 q -236 1080 -269 1107 q -170 1053 -205 1053 q -127 1071 -145 1053 q -110 1116 -110 1089 q -136 1169 -110 1141 q -212 1223 -164 1198 q -266 1267 -247 1240 q -285 1322 -285 1293 q -252 1378 -285 1355 q -175 1400 -220 1400 l -49 1400 l -49 1350 l -175 1350 q -212 1340 -197 1350 q -225 1321 -225 1332 q -201 1280 -225 1303 q -132 1233 -176 1256 q -72 1183 -94 1213 q -49 1116 -49 1152 q -84 1033 -49 1067 q -170 998 -119 998 z "},"ꣲ":{"ha":857,"x_min":136,"x_max":713,"o":"m 362 784 l 362 902 l 479 902 l 479 784 l 362 784 m 425 586 q 237 657 319 586 q 136 838 156 728 l 235 838 q 302 716 248 765 q 425 667 357 667 q 548 716 494 667 q 614 838 602 765 l 713 838 q 613 657 694 728 q 425 586 532 586 z "},"ꣳ":{"ha":857,"x_min":136,"x_max":749,"o":"m 361 298 l 315 362 l 423 444 l 749 190 l 694 136 l 423 353 l 361 298 m 362 784 l 362 902 l 479 902 l 479 784 l 362 784 m 425 586 q 237 657 319 586 q 136 838 156 728 l 235 838 q 302 716 248 765 q 425 667 357 667 q 548 716 494 667 q 614 838 602 765 l 713 838 q 613 657 694 728 q 425 586 532 586 z "},"ꣴ":{"ha":857,"x_min":136,"x_max":749,"o":"m 362 381 l 362 499 l 479 499 l 479 381 l 362 381 m 425 183 q 237 254 319 183 q 136 435 156 326 l 235 435 q 302 313 248 362 q 425 264 357 264 q 548 313 494 264 q 614 435 602 362 l 713 435 q 613 254 694 326 q 425 183 532 183 m 361 -81 l 315 -18 l 423 64 l 749 -190 l 694 -244 l 423 -27 l 361 -81 m 362 784 l 362 902 l 479 902 l 479 784 l 362 784 m 425 586 q 237 657 319 586 q 136 838 156 728 l 235 838 q 302 716 248 765 q 425 667 357 667 q 548 716 494 667 q 614 838 602 765 l 713 838 q 613 657 694 728 q 425 586 532 586 z "},"ꣵ":{"ha":887,"x_min":136,"x_max":713,"o":"m 362 784 l 362 902 l 479 902 l 479 784 l 362 784 m 425 586 q 237 657 319 586 q 136 838 156 728 l 235 838 q 302 716 248 765 q 425 667 357 667 q 548 716 494 667 q 614 838 602 765 l 713 838 q 613 657 694 728 q 425 586 532 586 m 557 -130 l 380 61 l 378 61 q 366 60 373 60 q 336 57 354 57 q 259 77 292 57 q 225 133 225 99 q 248 172 225 156 q 302 186 271 186 q 361 174 331 186 q 412 145 388 163 l 414 144 l 415 144 q 517 208 477 164 q 556 307 556 252 q 514 393 556 358 q 411 431 472 431 q 321 416 366 431 q 233 373 277 401 l 227 369 l 171 427 l 182 434 q 293 487 235 468 q 411 506 353 506 q 575 448 506 506 q 646 307 646 389 q 593 170 646 231 q 475 91 547 117 l 469 90 l 631 -87 l 557 -130 z "},"ꣶ":{"ha":882,"x_min":136,"x_max":713,"o":"m 362 784 l 362 902 l 479 902 l 479 784 l 362 784 m 425 586 q 237 657 319 586 q 136 838 156 728 l 235 838 q 302 716 248 765 q 425 667 357 667 q 548 716 494 667 q 614 838 602 765 l 713 838 q 613 657 694 728 q 425 586 532 586 m 483 -197 q 420 -146 454 -183 q 361 -64 391 -114 l 361 -62 l 358 -62 q 274 -37 309 -61 q 235 28 235 -9 q 255 68 235 52 q 305 81 275 81 q 366 62 335 81 q 416 15 395 45 l 418 12 l 420 14 q 510 50 475 22 q 545 115 545 79 q 503 183 545 155 q 393 214 458 214 l 313 214 l 266 282 l 407 282 q 487 307 453 282 q 518 359 518 328 q 486 408 518 387 q 400 430 450 430 q 336 420 372 430 q 262 393 301 411 l 255 389 l 209 442 l 218 449 q 307 490 258 476 q 407 505 355 505 q 547 463 488 505 q 606 359 606 420 q 581 289 606 323 q 537 250 563 266 l 532 247 l 537 244 q 600 198 575 225 q 633 115 633 160 q 576 7 633 54 q 457 -49 528 -34 l 452 -49 l 454 -54 q 502 -109 480 -87 q 545 -141 528 -134 l 564 -148 l 488 -199 l 483 -197 z "},"ꣷ":{"ha":849,"x_min":136,"x_max":713,"o":"m 362 784 l 362 902 l 479 902 l 479 784 l 362 784 m 425 586 q 237 657 319 586 q 136 838 156 728 l 235 838 q 302 716 248 765 q 425 667 357 667 q 548 716 494 667 q 614 838 602 765 l 713 838 q 613 657 694 728 q 425 586 532 586 m 414 -45 q 277 4 342 -45 q 183 132 212 53 l 179 141 l 259 175 l 263 165 q 328 69 285 106 q 416 34 370 34 q 471 58 448 34 q 494 118 494 83 q 458 186 494 149 q 357 258 422 224 q 283 317 311 281 q 258 395 258 354 q 304 472 258 441 q 408 502 347 502 l 582 502 l 582 427 l 408 427 q 362 415 381 427 q 345 392 345 406 q 376 340 345 370 q 468 278 410 309 q 551 208 521 250 q 582 118 582 164 q 534 3 582 50 q 414 -45 486 -45 z "},"꣸":{"ha":962,"x_min":69,"x_max":909,"o":"m 709 298 q 789 387 761 334 q 818 496 818 439 q 787 567 818 538 q 709 595 755 595 q 640 564 669 595 q 610 488 610 533 q 637 381 610 431 q 709 298 663 331 m 562 616 q 716 686 616 686 q 846 635 800 689 q 909 496 909 562 q 751 191 909 338 q 420 45 593 45 q 204 119 294 45 q 114 298 114 193 q 140 418 114 363 q 213 506 167 473 q 108 585 146 536 q 69 686 69 633 q 84 768 69 736 q 270 903 121 850 l 335 822 q 178 758 231 822 q 159 686 159 735 q 207 597 159 633 q 321 560 255 560 l 420 560 l 420 469 l 349 469 q 246 419 289 469 q 203 298 203 369 q 267 183 203 231 q 420 136 331 136 q 536 159 479 136 q 647 225 594 182 q 553 355 585 288 q 520 491 521 423 q 562 616 519 559 m 335 822 z "},"꣹":{"ha":962,"x_min":114,"x_max":909,"o":"m 555 349 q 548 366 553 350 q 521 491 518 446 q 562 616 524 568 q 716 686 617 686 q 849 637 800 681 q 909 496 909 581 q 751 191 909 338 q 420 45 593 45 q 204 119 294 45 q 114 298 114 193 q 138 418 114 373 q 350 560 209 552 l 407 560 l 407 469 l 355 469 q 247 419 289 469 q 206 301 206 369 q 269 184 206 233 q 420 136 331 136 q 537 159 479 136 q 789 387 703 225 q 818 496 818 439 q 787 567 818 538 q 709 595 755 595 q 640 564 669 595 q 610 488 610 533 q 637 381 610 431 l 555 349 z "},"꣺":{"ha":834,"x_min":98,"x_max":738,"o":"m 418 970 l 656 1282 l 738 1210 l 468 903 l 369 903 q 98 1210 362 911 l 179 1282 l 418 970 z "},"ꣻ":{"ha":842,"x_min":64,"x_max":777,"o":"m 64 1109 l 64 1191 l 777 1191 l 777 1109 l 64 1109 z "},"￪":{"ha":361,"x_min":-18,"x_max":1337,"o":"m -18 822 l -18 903 l 136 903 q 116 940 123 920 q 109 985 109 960 q 210 1194 109 1107 q 533 1282 312 1282 q 825 1200 659 1282 q 1031 1065 918 1154 q 1029 1084 1029 1074 q 1086 1224 1029 1166 q 1219 1282 1142 1282 q 1291 1278 1261 1282 q 1337 1264 1321 1274 l 1337 1192 q 1288 1206 1317 1202 q 1219 1210 1259 1210 q 1149 1173 1177 1210 q 1120 1084 1120 1137 q 1143 993 1120 1040 q 1195 920 1162 955 q 1214 901 1204 910 l 1105 901 q 746 1156 895 1103 q 547 1202 618 1202 q 281 1138 363 1202 q 198 985 198 1074 q 205 940 198 960 q 225 903 213 920 l 380 903 l 380 822 l 225 822 l 225 0 l 136 0 l 136 822 l -18 822 m 1223 1015 l 1223 1114 l 1324 1114 l 1324 1015 l 1223 1015 z "},"￫":{"ha":361,"x_min":-18,"x_max":1318,"o":"m -18 822 l -18 903 l 136 903 q 116 940 123 920 q 109 985 109 960 q 210 1194 109 1107 q 533 1282 312 1282 q 825 1200 659 1282 q 1002 1088 907 1160 q 1066 1223 1004 1168 q 1219 1282 1128 1282 q 1268 1278 1244 1282 q 1318 1264 1293 1274 l 1318 1183 q 1256 1204 1280 1198 q 1219 1210 1232 1210 q 1130 1173 1166 1210 q 1093 1084 1093 1137 q 1127 985 1093 1034 q 1134 977 1130 981 q 1196 918 1164 949 q 1219 903 1207 910 l 1211 903 q 1214 901 1213 902 l 1105 901 q 1103 903 1104 902 l 1101 903 q 1067 937 1082 920 q 746 1156 882 1107 q 547 1202 618 1202 q 281 1138 363 1202 q 198 985 198 1074 q 205 940 198 960 q 225 903 213 920 l 380 903 l 380 822 l 225 822 l 225 0 l 136 0 l 136 822 l -18 822 z "},"￬":{"ha":361,"x_min":-18,"x_max":1214,"o":"m 1076 1128 l 1076 1255 l 1211 1255 l 1211 1128 l 1076 1128 m -18 822 l -18 903 l 136 903 q 116 940 123 920 q 109 985 109 960 q 210 1194 109 1107 q 533 1282 312 1282 q 825 1200 659 1282 q 1214 901 991 1119 l 1105 901 q 746 1156 895 1103 q 547 1202 618 1202 q 281 1138 363 1202 q 198 985 198 1074 q 205 940 198 960 q 225 903 213 920 l 380 903 l 380 822 l 225 822 l 225 0 l 136 0 l 136 822 l -18 822 z "},"￭":{"ha":361,"x_min":-18,"x_max":1214,"o":"m -18 822 l -18 903 l 136 903 q 116 940 123 920 q 109 985 109 960 q 210 1194 109 1107 q 533 1282 312 1282 q 825 1200 659 1282 q 1214 901 991 1119 l 1105 901 q 746 1156 895 1103 q 547 1202 618 1202 q 281 1138 363 1202 q 198 985 198 1074 q 205 940 198 960 q 225 903 213 920 l 380 903 l 380 822 l 225 822 l 225 0 l 136 0 l 136 822 l -18 822 z "},"￮":{"ha":361,"x_min":-18,"x_max":1149,"o":"m 997 1165 l 997 1291 l 1133 1291 l 1133 1165 l 997 1165 m -18 822 l -18 903 l 133 903 q 129 952 130 905 q 129 1025 129 985 q 228 1215 129 1146 q 488 1282 327 1283 q 897 1176 741 1282 q 1149 902 1053 1070 l 1042 902 q 839 1117 966 1032 q 488 1202 712 1202 q 288 1156 350 1202 q 218 1025 221 1107 q 218 952 217 970 q 222 903 225 918 l 380 903 l 380 822 l 225 822 l 225 0 l 136 0 l 136 822 l -18 822 z "},"￯":{"ha":361,"x_min":-18,"x_max":1280,"o":"m -18 822 l -18 903 l 132 903 q 129 1025 132 903 q 228 1215 129 1146 q 488 1282 327 1283 q 895 1176 739 1282 q 943 1141 920 1160 q 998 1223 958 1188 q 1152 1282 1061 1282 q 1200 1278 1172 1282 q 1223 1270 1218 1275 l 1223 1192 q 1184 1199 1218 1199 q 1062 1162 1093 1198 q 1025 1073 1021 1116 q 1138 903 1038 1055 l 1040 902 q 1009 951 1025 926 l 956 1016 q 838 1118 903 1073 q 488 1202 711 1202 q 288 1156 350 1202 q 218 1025 221 1107 l 222 903 l 380 903 l 380 822 l 225 822 l 225 0 l 136 0 l 136 822 l -18 822 m 1180 1016 l 1180 1115 l 1280 1115 l 1280 1016 l 1180 1016 z "},"￰":{"ha":361,"x_min":-18,"x_max":1223,"o":"m -18 822 l -18 903 l 132 903 q 129 1025 132 903 q 228 1215 129 1146 q 488 1282 327 1283 q 895 1176 739 1282 q 943 1141 920 1160 q 998 1223 958 1188 q 1152 1282 1061 1282 q 1200 1278 1172 1282 q 1223 1270 1218 1275 l 1223 1192 q 1184 1199 1218 1199 q 1062 1162 1093 1198 q 1025 1073 1021 1116 q 1138 903 1038 1055 l 1040 902 q 1009 951 1025 926 l 956 1016 q 838 1118 903 1073 q 488 1202 711 1202 q 288 1156 350 1202 q 218 1025 221 1107 l 222 903 l 380 903 l 380 822 l 225 822 l 225 0 l 136 0 l 136 822 l -18 822 z "},"￱":{"ha":361,"x_min":-18,"x_max":1147,"o":"m -18 822 l -18 903 l 133 903 q 129 952 130 905 q 129 1025 129 985 q 228 1215 129 1146 q 488 1282 327 1283 q 895 1176 739 1282 q 1147 902 1051 1070 l 1040 902 q 838 1117 964 1032 q 488 1202 711 1202 q 288 1156 350 1202 q 218 1025 221 1107 q 218 952 217 970 q 222 903 225 918 l 380 903 l 380 822 l 225 822 l 225 0 l 136 0 l 136 822 l -18 822 z "},"￲":{"ha":361,"x_min":-18,"x_max":1409,"o":"m -18 822 l -18 903 l 136 903 q 116 940 123 920 q 109 985 109 960 q 210 1194 109 1107 q 533 1282 312 1282 q 895 1200 730 1282 q 1103 1065 990 1154 q 1101 1084 1101 1074 q 1158 1224 1101 1166 q 1291 1282 1214 1282 q 1363 1278 1333 1282 q 1409 1264 1393 1274 l 1409 1192 q 1360 1206 1389 1202 q 1291 1210 1331 1210 q 1221 1173 1249 1210 q 1192 1084 1192 1137 q 1218 990 1192 1043 q 1284 901 1241 944 l 1176 901 q 817 1156 966 1103 q 547 1202 689 1202 q 281 1138 363 1202 q 198 985 198 1074 q 205 940 198 960 q 225 903 213 920 l 380 903 l 380 822 l 225 822 l 225 0 l 136 0 l 136 822 l -18 822 m 1295 1016 l 1295 1115 l 1396 1115 l 1396 1016 l 1295 1016 z "},"￳":{"ha":361,"x_min":-18,"x_max":1386,"o":"m -18 822 l -18 903 l 136 903 q 116 940 123 920 q 109 985 109 960 q 210 1194 109 1107 q 533 1282 312 1282 q 895 1200 730 1282 q 1070 1089 977 1161 q 1134 1223 1073 1168 q 1287 1282 1196 1282 q 1336 1278 1312 1282 q 1386 1264 1360 1274 l 1386 1183 q 1324 1204 1348 1198 q 1287 1210 1299 1210 q 1198 1173 1234 1210 q 1161 1084 1161 1137 q 1191 989 1161 1036 q 1284 901 1236 948 l 1176 901 q 1146 929 1160 914 q 817 1156 955 1107 q 547 1202 689 1202 q 281 1138 363 1202 q 198 985 198 1074 q 205 940 198 960 q 225 903 213 920 l 380 903 l 380 822 l 225 822 l 225 0 l 136 0 l 136 822 l -18 822 z "},"￴":{"ha":361,"x_min":-18,"x_max":1284,"o":"m 1143 1128 l 1143 1255 l 1279 1255 l 1279 1128 l 1143 1128 m -18 822 l -18 903 l 136 903 q 116 940 123 920 q 109 985 109 960 q 210 1194 109 1107 q 533 1282 312 1282 q 896 1200 730 1282 q 1284 901 1062 1119 l 1176 901 q 817 1156 966 1103 q 547 1202 689 1202 q 281 1138 363 1202 q 198 985 198 1074 q 205 940 198 960 q 225 903 213 920 l 380 903 l 380 822 l 225 822 l 225 0 l 136 0 l 136 822 l -18 822 z "},"￵":{"ha":361,"x_min":-18,"x_max":1066,"o":"m 914 1165 l 914 1291 l 1050 1291 l 1050 1165 l 914 1165 m -18 822 l -18 903 l 133 903 q 129 952 130 905 q 129 1025 129 985 q 228 1215 129 1146 q 488 1282 327 1283 q 814 1176 658 1282 q 1066 902 970 1070 l 959 902 q 756 1117 883 1032 q 488 1202 629 1202 q 288 1156 350 1202 q 218 1025 221 1107 q 218 952 217 970 q 222 903 225 918 l 380 903 l 380 822 l 225 822 l 225 0 l 136 0 l 136 822 l -18 822 z "},"￶":{"ha":361,"x_min":-18,"x_max":1206,"o":"m -18 822 l -18 903 l 133 903 q 129 952 130 905 q 129 1025 129 985 q 228 1215 129 1146 q 488 1282 327 1283 q 814 1176 658 1282 q 899 1109 859 1145 q 955 1223 907 1176 q 1088 1282 1010 1282 q 1160 1278 1130 1282 q 1206 1264 1190 1274 l 1206 1192 q 1156 1206 1185 1202 q 1088 1210 1127 1210 q 1017 1173 1046 1210 q 989 1084 989 1137 q 1005 994 989 1040 q 1066 902 1038 951 l 959 902 q 956 907 958 905 q 757 1118 880 1034 q 488 1202 629 1202 q 288 1156 350 1202 q 218 1025 221 1107 q 218 952 217 970 q 222 903 225 918 l 380 903 l 380 822 l 225 822 l 225 0 l 136 0 l 136 822 l -18 822 m 1099 1016 l 1099 1115 l 1199 1115 l 1199 1016 l 1099 1016 z "},"￷":{"ha":361,"x_min":-18,"x_max":1169,"o":"m -18 822 l -18 903 l 133 903 q 129 952 130 905 q 129 1025 129 985 q 228 1215 129 1146 q 488 1282 327 1283 q 814 1176 658 1282 q 861 1141 838 1160 q 917 1223 876 1188 q 1070 1282 979 1282 q 1119 1278 1095 1282 q 1169 1264 1143 1274 l 1169 1183 q 1107 1204 1131 1198 q 1070 1210 1082 1210 q 981 1176 1023 1210 q 944 1073 932 1138 q 987 1020 945 1069 q 1070 903 1024 979 q 1065 903 1067 903 q 1066 902 1066 902 l 959 902 q 928 951 944 926 q 892 994 911 972 q 875 1016 882 1005 q 757 1118 822 1073 q 488 1202 629 1202 q 288 1156 350 1202 q 218 1025 221 1107 q 218 952 217 970 q 222 903 225 918 l 380 903 l 380 822 l 225 822 l 225 0 l 136 0 l 136 822 l -18 822 z "},"￸":{"ha":361,"x_min":-18,"x_max":1066,"o":"m -18 822 l -18 903 l 133 903 q 129 952 130 905 q 129 1025 129 985 q 228 1215 129 1146 q 488 1282 327 1283 q 814 1176 658 1282 q 1066 902 970 1070 l 959 902 q 756 1117 883 1032 q 488 1202 629 1202 q 288 1156 350 1202 q 218 1025 221 1107 q 218 952 217 970 q 222 903 225 918 l 380 903 l 380 822 l 225 822 l 225 0 l 136 0 l 136 822 l -18 822 z "},"￻":{"ha":361,"x_min":-18,"x_max":1762,"o":"m -18 822 l -18 903 l 136 903 q 116 940 123 920 q 109 985 109 960 q 264 1194 109 1107 q 642 1282 420 1282 q 1237 1188 974 1282 q 1454 1084 1358 1143 q 1454 1100 1454 1092 q 1510 1240 1454 1183 q 1644 1298 1567 1298 q 1716 1294 1686 1298 q 1762 1280 1746 1290 l 1762 1208 q 1712 1222 1742 1218 q 1644 1226 1683 1226 q 1573 1190 1602 1226 q 1545 1100 1545 1153 q 1573 1010 1545 1057 q 1609 960 1588 985 q 1644 921 1626 941 l 1535 920 q 1522 935 1529 926 q 1169 1128 1389 1059 q 642 1202 936 1202 q 328 1138 458 1202 q 198 985 198 1074 q 205 940 198 960 q 225 903 213 920 l 380 903 l 380 822 l 225 822 l 225 0 l 136 0 l 136 822 l -18 822 m 1628 1046 l 1628 1145 l 1728 1145 l 1728 1046 l 1628 1046 z "},"�":{"ha":496,"x_min":-18,"x_max":515,"o":"m -18 822 l -18 903 l 515 903 l 515 822 l -18 822 m 307 286 q 366 295 339 286 q 415 323 393 304 l 171 521 q 151 482 159 505 q 144 431 144 460 q 192 329 144 372 q 307 286 240 286 m 506 269 l 99 -3 l 54 69 l 264 206 q 113 290 172 227 q 54 431 54 353 q 134 616 54 538 q 324 693 213 693 q 389 686 359 693 q 442 666 419 678 l 415 593 q 372 607 395 602 q 324 612 350 612 q 257 602 285 612 q 216 575 229 591 l 479 377 l 506 412 l 506 269 z "}}}
